<?xml version="1.0" encoding="UTF-8"?>
<!DOCTYPE svg PUBLIC "-//W3C//DTD SVG 1.1//EN" "http://www.w3.org/Graphics/SVG/1.1/DTD/svg11.dtd">
<svg xmlns="http://www.w3.org/2000/svg" version="1.1" width="300px" height="300px" style="shape-rendering:geometricPrecision; text-rendering:geometricPrecision; image-rendering:optimizeQuality; fill-rule:evenodd; clip-rule:evenodd" xmlns:xlink="http://www.w3.org/1999/xlink">
<g><path style="opacity:1" fill="#94d659" d="M 131.5,-0.5 C 142.833,-0.5 154.167,-0.5 165.5,-0.5C 165.5,-0.166667 165.5,0.166667 165.5,0.5C 164.5,0.5 163.5,0.5 162.5,0.5C 153.318,0.173363 144.318,0.506697 135.5,1.5C 132.833,1.5 130.167,1.5 127.5,1.5C 128.833,0.833333 130.167,0.166667 131.5,-0.5 Z"/></g>
<g><path style="opacity:0.596" fill="#83ae5b" d="M 162.5,0.5 C 163.5,0.5 164.5,0.5 165.5,0.5C 168.727,0.676146 171.727,1.34281 174.5,2.5C 171.119,2.54046 167.786,2.20713 164.5,1.5C 163.508,1.67158 162.842,1.33825 162.5,0.5 Z"/></g>
<g><path style="opacity:1" fill="#7ca453" d="M 177.5,2.5 C 182.519,2.96238 187.186,4.29571 191.5,6.5C 187.149,5.8297 182.816,4.99637 178.5,4C 177.944,3.61742 177.611,3.11742 177.5,2.5 Z"/></g>
<g><path style="opacity:1" fill="#447917" d="M 164.5,1.5 C 167.786,2.20713 171.119,2.54046 174.5,2.5C 175.5,2.5 176.5,2.5 177.5,2.5C 177.611,3.11742 177.944,3.61742 178.5,4C 182.816,4.99637 187.149,5.8297 191.5,6.5C 192.959,6.43255 194.292,6.76589 195.5,7.5C 196.99,9.27983 198.99,9.94649 201.5,9.5C 202.492,9.32842 203.158,9.66175 203.5,10.5C 206.37,12.7943 209.703,14.1277 213.5,14.5C 216.004,15.5839 218.337,16.9172 220.5,18.5C 218.54,17.8617 216.707,17.8617 215,18.5C 200.136,9.84745 183.97,5.34745 166.5,5C 165.177,4.18405 164.511,3.01739 164.5,1.5 Z"/></g>
<g><path style="opacity:1" fill="#78a24f" d="M 117.5,3.5 C 116.5,4.16667 115.5,4.83333 114.5,5.5C 112.194,5.99255 109.861,6.32588 107.5,6.5C 110.505,4.7234 113.838,3.7234 117.5,3.5 Z"/></g>
<g><path style="opacity:1" fill="#3c790e" d="M 127.5,1.5 C 130.167,1.5 132.833,1.5 135.5,1.5C 138.187,1.33591 140.854,1.50258 143.5,2C 133.141,4.5082 133.141,6.0082 143.5,6.5C 143.5,5.5 143.5,4.5 143.5,3.5C 148.833,3.5 154.167,3.5 159.5,3.5C 159.703,5.39037 159.037,6.89037 157.5,8C 155.5,8.33333 153.5,8.66667 151.5,9C 159.666,8.65894 167.833,9.49228 176,11.5C 176.561,10.9781 177.228,10.6448 178,10.5C 180.464,11.1608 182.964,11.6608 185.5,12C 186.942,12.3768 187.942,13.2101 188.5,14.5C 182.889,13.4364 177.222,12.6031 171.5,12C 154.833,11.3333 138.167,11.3333 121.5,12C 121.833,12.3333 122.167,12.6667 122.5,13C 117.544,13.9977 112.544,14.831 107.5,15.5C 106.423,16.7051 105.09,17.3718 103.5,17.5C 103.082,16.7784 102.416,16.2784 101.5,16C 105.545,14.553 109.211,12.553 112.5,10C 117.16,8.49724 121.827,8.33058 126.5,9.5C 127.452,7.95467 127.785,6.28801 127.5,4.5C 123.19,5.08021 118.857,5.41355 114.5,5.5C 115.5,4.83333 116.5,4.16667 117.5,3.5C 120.728,2.45444 124.061,1.78777 127.5,1.5 Z"/></g>
<g><path style="opacity:1" fill="#759f4e" d="M 195.5,7.5 C 197.786,7.59495 199.786,8.26162 201.5,9.5C 198.99,9.94649 196.99,9.27983 195.5,7.5 Z"/></g>
<g><path style="opacity:0.741" fill="#7ca854" d="M 203.5,10.5 C 207.137,11.2635 210.47,12.5968 213.5,14.5C 209.703,14.1277 206.37,12.7943 203.5,10.5 Z"/></g>
<g><path style="opacity:1" fill="#4f8226" d="M 107.5,6.5 C 107.53,7.49722 107.03,8.16389 106,8.5C 98.869,12.3793 91.369,14.7126 83.5,15.5C 90.9886,11.3344 98.9886,8.33444 107.5,6.5 Z"/></g>
<g><path style="opacity:1" fill="#487a1e" d="M 188.5,14.5 C 189.5,14.5 190.5,14.5 191.5,14.5C 191.5,15.5 191.5,16.5 191.5,17.5C 196.109,18.7557 200.775,19.9224 205.5,21C 206.823,21.8159 207.489,22.9826 207.5,24.5C 198.59,21.5457 189.59,18.879 180.5,16.5C 179.833,16.5 179.167,16.5 178.5,16.5C 175.132,14.941 171.465,14.1077 167.5,14C 159.507,13.5003 151.507,13.3336 143.5,13.5C 121.92,12.8948 101.92,17.8948 83.5,28.5C 76.1892,31.8234 69.5225,36.1567 63.5,41.5C 64.0476,39.6064 65.0476,37.9397 66.5,36.5C 70.3335,33.827 74.0002,30.9937 77.5,28C 83.8811,25.001 90.2144,22.001 96.5,19C 98.8659,18.5604 101.199,18.0604 103.5,17.5C 105.09,17.3718 106.423,16.7051 107.5,15.5C 112.544,14.831 117.544,13.9977 122.5,13C 122.167,12.6667 121.833,12.3333 121.5,12C 138.167,11.3333 154.833,11.3333 171.5,12C 177.222,12.6031 182.889,13.4364 188.5,14.5 Z"/></g>
<g><path style="opacity:1" fill="#aac794" d="M 178.5,16.5 C 179.167,16.5 179.833,16.5 180.5,16.5C 180.908,17.6431 181.575,18.6431 182.5,19.5C 186.417,21.1444 190.417,22.4778 194.5,23.5C 195.635,24.4745 196.635,25.6412 197.5,27C 197.167,27.3333 196.833,27.6667 196.5,28C 186.783,28.2621 177.117,29.0955 167.5,30.5C 165.167,30.1667 162.833,29.8333 160.5,29.5C 159.907,27.6183 159.24,25.7849 158.5,24C 148.506,23.5002 138.506,23.3335 128.5,23.5C 128.67,24.8221 128.337,25.9887 127.5,27C 121.48,27.3013 115.48,27.8013 109.5,28.5C 107.291,28.4305 105.291,27.7638 103.5,26.5C 105.445,23.4501 108.278,21.7834 112,21.5C 114.39,22.724 116.89,23.224 119.5,23C 120.623,21.9563 121.956,21.2896 123.5,21C 122.833,20.6667 122.167,20.3333 121.5,20C 123.5,19.6667 125.5,19.3333 127.5,19C 126.167,18.3333 126.167,17.6667 127.5,17C 135.504,16.5586 143.504,16.0586 151.5,15.5C 160.485,16.2659 169.485,16.5993 178.5,16.5 Z"/></g>
<g><path style="opacity:1" fill="#62933a" d="M 220.5,18.5 C 224.505,19.4977 227.839,21.4977 230.5,24.5C 227.228,23.2422 223.894,22.0755 220.5,21C 221.598,20.2303 221.598,19.397 220.5,18.5 Z"/></g>
<g><path style="opacity:1" fill="#588929" d="M 78.5,18.5 C 77.9688,20.6237 76.6355,22.1237 74.5,23C 71.6792,23.5742 69.3459,24.9076 67.5,27C 66.2068,27.49 64.8734,27.6567 63.5,27.5C 67.9946,23.7487 72.9946,20.7487 78.5,18.5 Z"/></g>
<g><path style="opacity:1" fill="#a1cb82" d="M 180.5,16.5 C 189.59,18.879 198.59,21.5457 207.5,24.5C 207.842,25.3382 208.508,25.6716 209.5,25.5C 211.19,27.3417 213.19,28.675 215.5,29.5C 216.506,30.3957 216.506,31.0623 215.5,31.5C 214.292,30.7659 212.959,30.4326 211.5,30.5C 208.482,28.6001 205.149,27.2667 201.5,26.5C 199.372,25.0427 197.038,24.0427 194.5,23.5C 190.417,22.4778 186.417,21.1444 182.5,19.5C 181.575,18.6431 180.908,17.6431 180.5,16.5 Z"/></g>
<g><path style="opacity:1" fill="#3c7f08" d="M 135.5,1.5 C 144.318,0.506697 153.318,0.173363 162.5,0.5C 162.842,1.33825 163.508,1.67158 164.5,1.5C 164.511,3.01739 165.177,4.18405 166.5,5C 183.97,5.34745 200.136,9.84745 215,18.5C 216.707,17.8617 218.54,17.8617 220.5,18.5C 221.598,19.397 221.598,20.2303 220.5,21C 223.894,22.0755 227.228,23.2422 230.5,24.5C 230.833,24.5 231.167,24.5 231.5,24.5C 231.66,26.153 232.326,27.4863 233.5,28.5C 234.989,30.8051 236.489,33.1384 238,35.5C 240.528,34.0659 242.362,34.7325 243.5,37.5C 240.05,36.7564 238.384,38.0897 238.5,41.5C 233.044,39.2108 229.044,35.3774 226.5,30C 220.828,28.1712 215.162,26.6712 209.5,25.5C 208.508,25.6716 207.842,25.3382 207.5,24.5C 207.489,22.9826 206.823,21.8159 205.5,21C 200.775,19.9224 196.109,18.7557 191.5,17.5C 191.5,16.5 191.5,15.5 191.5,14.5C 190.5,14.5 189.5,14.5 188.5,14.5C 187.942,13.2101 186.942,12.3768 185.5,12C 182.964,11.6608 180.464,11.1608 178,10.5C 177.228,10.6448 176.561,10.9781 176,11.5C 167.833,9.49228 159.666,8.65894 151.5,9C 153.5,8.66667 155.5,8.33333 157.5,8C 159.037,6.89037 159.703,5.39037 159.5,3.5C 154.167,3.5 148.833,3.5 143.5,3.5C 143.5,4.5 143.5,5.5 143.5,6.5C 133.141,6.0082 133.141,4.5082 143.5,2C 140.854,1.50258 138.187,1.33591 135.5,1.5 Z"/></g>
<g><path style="opacity:1" fill="#a7c58d" d="M 143.5,13.5 C 151.507,13.3336 159.507,13.5003 167.5,14C 171.465,14.1077 175.132,14.941 178.5,16.5C 169.485,16.5993 160.485,16.2659 151.5,15.5C 143.504,16.0586 135.504,16.5586 127.5,17C 126.167,17.6667 126.167,18.3333 127.5,19C 125.5,19.3333 123.5,19.6667 121.5,20C 122.167,20.3333 122.833,20.6667 123.5,21C 121.956,21.2896 120.623,21.9563 119.5,23C 116.89,23.224 114.39,22.724 112,21.5C 108.278,21.7834 105.445,23.4501 103.5,26.5C 105.291,27.7638 107.291,28.4305 109.5,28.5C 115.48,27.8013 121.48,27.3013 127.5,27C 128.337,25.9887 128.67,24.8221 128.5,23.5C 138.506,23.3335 148.506,23.5002 158.5,24C 159.24,25.7849 159.907,27.6183 160.5,29.5C 162.833,29.8333 165.167,30.1667 167.5,30.5C 177.117,29.0955 186.783,28.2621 196.5,28C 196.833,27.6667 197.167,27.3333 197.5,27C 196.635,25.6412 195.635,24.4745 194.5,23.5C 197.038,24.0427 199.372,25.0427 201.5,26.5C 201.414,27.4959 201.748,28.3292 202.5,29C 204.384,29.2163 206.051,29.883 207.5,31C 204.621,31.9574 202.121,31.4574 200,29.5C 189.421,31.3732 178.588,32.3732 167.5,32.5C 153.307,31.9642 139.141,31.2975 125,30.5C 116.442,31.995 107.942,31.6617 99.5,29.5C 95.9941,30.9871 92.3275,31.9871 88.5,32.5C 88.5,31.5 88.5,30.5 88.5,29.5C 91.8573,29.7841 94.1906,28.4507 95.5,25.5C 101.365,22.0341 107.532,20.3675 114,20.5C 115.487,19.7471 115.654,18.9138 114.5,18C 123.681,15.9881 133.014,14.9881 142.5,15C 143.056,14.6174 143.389,14.1174 143.5,13.5 Z"/></g>
<g><path style="opacity:1" fill="#9ec67d" d="M 143.5,13.5 C 143.389,14.1174 143.056,14.6174 142.5,15C 133.014,14.9881 123.681,15.9881 114.5,18C 115.654,18.9138 115.487,19.7471 114,20.5C 107.532,20.3675 101.365,22.0341 95.5,25.5C 91.4636,27.1881 87.4636,28.8548 83.5,30.5C 83.5,29.8333 83.5,29.1667 83.5,28.5C 101.92,17.8948 121.92,12.8948 143.5,13.5 Z"/></g>
<g><path style="opacity:1" fill="#66933c" d="M 231.5,24.5 C 234.473,26.1468 237.14,28.1468 239.5,30.5C 237.5,29.8333 235.5,29.1667 233.5,28.5C 232.326,27.4863 231.66,26.153 231.5,24.5 Z"/></g>
<g><path style="opacity:1" fill="#6a9a49" d="M 63.5,27.5 C 62.4613,29.5311 60.7946,30.8645 58.5,31.5C 59.5794,29.457 61.246,28.1237 63.5,27.5 Z"/></g>
<g><path style="opacity:1" fill="#50841e" d="M 233.5,28.5 C 235.5,29.1667 237.5,29.8333 239.5,30.5C 245.747,34.0776 251.08,38.7442 255.5,44.5C 253.076,43.9695 250.743,43.1362 248.5,42C 247.589,39.5852 245.922,38.0852 243.5,37.5C 242.362,34.7325 240.528,34.0659 238,35.5C 236.489,33.1384 234.989,30.8051 233.5,28.5 Z"/></g>
<g><path style="opacity:1" fill="#9fc184" d="M 95.5,25.5 C 94.1906,28.4507 91.8573,29.7841 88.5,29.5C 88.5,30.5 88.5,31.5 88.5,32.5C 92.3275,31.9871 95.9941,30.9871 99.5,29.5C 107.942,31.6617 116.442,31.995 125,30.5C 139.141,31.2975 153.307,31.9642 167.5,32.5C 178.588,32.3732 189.421,31.3732 200,29.5C 202.121,31.4574 204.621,31.9574 207.5,31C 206.051,29.883 204.384,29.2163 202.5,29C 201.748,28.3292 201.414,27.4959 201.5,26.5C 205.149,27.2667 208.482,28.6001 211.5,30.5C 212.429,31.3149 213.429,32.1482 214.5,33C 213.646,34.881 213.979,36.7143 215.5,38.5C 170.505,39.4999 125.505,39.8333 80.5,39.5C 79.2025,44.7175 77.5358,44.7175 75.5,39.5C 75.685,38.4163 76.0183,37.4163 76.5,36.5C 78.427,33.9221 80.7603,31.9221 83.5,30.5C 87.4636,28.8548 91.4636,27.1881 95.5,25.5 Z"/></g>
<g><path style="opacity:1" fill="#9bbe7d" d="M 211.5,30.5 C 212.959,30.4326 214.292,30.7659 215.5,31.5C 217.792,32.3395 220.125,33.3395 222.5,34.5C 226.219,37.8911 229.886,41.2245 233.5,44.5C 233.414,45.4959 233.748,46.3292 234.5,47C 231.066,47.8911 227.899,47.3911 225,45.5C 219.677,47.1773 214.177,48.0106 208.5,48C 207.667,48.8333 206.833,49.6667 206,50.5C 203.521,48.0832 200.521,47.0832 197,47.5C 194.705,47.5465 192.871,48.2132 191.5,49.5C 180.574,47.8365 169.574,47.1698 158.5,47.5C 134.672,46.5024 110.672,46.1691 86.5,46.5C 86.7373,47.791 86.404,48.791 85.5,49.5C 81.7733,46.2455 77.7733,45.5789 73.5,47.5C 71.701,47.423 70.0344,46.923 68.5,46C 70.0854,43.9307 71.4187,41.764 72.5,39.5C 73.2362,37.7706 74.5695,36.7706 76.5,36.5C 76.0183,37.4163 75.685,38.4163 75.5,39.5C 77.5358,44.7175 79.2025,44.7175 80.5,39.5C 125.505,39.8333 170.505,39.4999 215.5,38.5C 213.979,36.7143 213.646,34.881 214.5,33C 213.429,32.1482 212.429,31.3149 211.5,30.5 Z"/></g>
<g><path style="opacity:1" fill="#40800d" d="M 103.5,17.5 C 101.199,18.0604 98.8659,18.5604 96.5,19C 90.2144,22.001 83.8811,25.001 77.5,28C 74.0002,30.9937 70.3335,33.827 66.5,36.5C 65.0476,37.9397 64.0476,39.6064 63.5,41.5C 61.8333,43.5 60.1667,45.5 58.5,47.5C 53.3857,51.0784 49.7191,55.7451 47.5,61.5C 45.7819,63.2228 44.4486,65.2228 43.5,67.5C 43.5,67.8333 43.5,68.1667 43.5,68.5C 43.1667,68.5 42.8333,68.5 42.5,68.5C 41.7656,67.1225 41.0989,65.6225 40.5,64C 41.4491,63.3828 42.2825,63.5494 43,64.5C 43.4955,62.5273 43.6621,60.5273 43.5,58.5C 44.5,58.5 45.5,58.5 46.5,58.5C 46.3433,57.1266 46.51,55.7932 47,54.5C 50.0272,52.1395 52.6938,49.4729 55,46.5C 55.7494,45.365 55.5827,44.365 54.5,43.5C 52.5675,42.4798 50.5675,42.3131 48.5,43C 45.6007,45.7291 42.934,48.5624 40.5,51.5C 42.8919,45.9383 46.8919,41.7717 52.5,39C 51.4019,38.2303 51.4019,37.397 52.5,36.5C 53.9108,34.086 55.9108,32.4194 58.5,31.5C 60.7946,30.8645 62.4613,29.5311 63.5,27.5C 64.8734,27.6567 66.2068,27.49 67.5,27C 69.3459,24.9076 71.6792,23.5742 74.5,23C 76.6355,22.1237 77.9688,20.6237 78.5,18.5C 79.6594,16.7497 81.326,15.7497 83.5,15.5C 91.369,14.7126 98.869,12.3793 106,8.5C 107.03,8.16389 107.53,7.49722 107.5,6.5C 109.861,6.32588 112.194,5.99255 114.5,5.5C 118.857,5.41355 123.19,5.08021 127.5,4.5C 127.785,6.28801 127.452,7.95467 126.5,9.5C 121.827,8.33058 117.16,8.49724 112.5,10C 109.211,12.553 105.545,14.553 101.5,16C 102.416,16.2784 103.082,16.7784 103.5,17.5 Z"/></g>
<g><path style="opacity:1" fill="#619237" d="M 52.5,36.5 C 51.4019,37.397 51.4019,38.2303 52.5,39C 46.8919,41.7717 42.8919,45.9383 40.5,51.5C 38.0729,54.2433 35.0729,56.2433 31.5,57.5C 37.5211,49.4789 44.5211,42.4789 52.5,36.5 Z"/></g>
<g><path style="opacity:1" fill="#4a801a" d="M 209.5,25.5 C 215.162,26.6712 220.828,28.1712 226.5,30C 229.044,35.3774 233.044,39.2108 238.5,41.5C 241.615,43.2878 243.615,45.9545 244.5,49.5C 237.163,43.8292 229.83,38.1626 222.5,32.5C 220.026,31.6805 217.693,30.6805 215.5,29.5C 213.19,28.675 211.19,27.3417 209.5,25.5 Z"/></g>
<g><path style="opacity:1" fill="#a7c28d" d="M 158.5,47.5 C 134.809,46.8435 111.476,47.5101 88.5,49.5C 88.5,66.8333 88.5,84.1667 88.5,101.5C 89.5695,110.66 89.5695,119.66 88.5,128.5C 88.8222,122.642 88.4889,116.975 87.5,111.5C 87.5,111.167 87.5,110.833 87.5,110.5C 87.5,105.5 87.5,100.5 87.5,95.5C 87.6067,84.9661 86.9401,74.6328 85.5,64.5C 85.5,62.1667 85.5,59.8333 85.5,57.5C 85.5,54.8333 85.5,52.1667 85.5,49.5C 86.404,48.791 86.7373,47.791 86.5,46.5C 110.672,46.1691 134.672,46.5024 158.5,47.5 Z"/></g>
<g><path style="opacity:1" fill="#a2b88c" d="M 158.5,47.5 C 169.574,47.1698 180.574,47.8365 191.5,49.5C 196.592,52.0869 201.925,54.0869 207.5,55.5C 208.519,59.8525 211.186,62.5191 215.5,63.5C 217.075,65.5475 218.075,67.8808 218.5,70.5C 209.426,59.4339 197.76,53.1006 183.5,51.5C 181.031,50.6829 178.365,50.1829 175.5,50C 146.502,49.5 117.502,49.3334 88.5,49.5C 111.476,47.5101 134.809,46.8435 158.5,47.5 Z"/></g>
<g><path style="opacity:1" fill="#94bd75" d="M 72.5,39.5 C 71.4187,41.764 70.0854,43.9307 68.5,46C 70.0344,46.923 71.701,47.423 73.5,47.5C 77.7733,45.5789 81.7733,46.2455 85.5,49.5C 85.5,52.1667 85.5,54.8333 85.5,57.5C 84.5489,56.0813 84.2155,54.4147 84.5,52.5C 81.7426,52.3784 79.7426,53.5451 78.5,56C 72.0325,56.7915 65.6992,56.2915 59.5,54.5C 59.2011,52.396 59.5344,50.396 60.5,48.5C 64.313,45.1399 68.313,42.1399 72.5,39.5 Z"/></g>
<g><path style="opacity:1" fill="#93bc75" d="M 233.5,44.5 C 235.284,45.956 237.284,46.956 239.5,47.5C 239.273,49.9328 240.273,51.5994 242.5,52.5C 241.905,55.1125 241.071,55.1125 240,52.5C 239.517,53.448 239.351,54.448 239.5,55.5C 234.489,55.3341 229.489,55.5007 224.5,56C 223.975,56.6924 223.308,57.1924 222.5,57.5C 220.167,56 217.833,54.5 215.5,53C 212.773,52.1816 210.106,52.3483 207.5,53.5C 210.57,56.5638 213.237,59.8971 215.5,63.5C 211.186,62.5191 208.519,59.8525 207.5,55.5C 201.925,54.0869 196.592,52.0869 191.5,49.5C 192.871,48.2132 194.705,47.5465 197,47.5C 200.521,47.0832 203.521,48.0832 206,50.5C 206.833,49.6667 207.667,48.8333 208.5,48C 214.177,48.0106 219.677,47.1773 225,45.5C 227.899,47.3911 231.066,47.8911 234.5,47C 233.748,46.3292 233.414,45.4959 233.5,44.5 Z"/></g>
<g><path style="opacity:1" fill="#43880c" d="M 243.5,37.5 C 245.922,38.0852 247.589,39.5852 248.5,42C 250.743,43.1362 253.076,43.9695 255.5,44.5C 256.833,45.1667 257.833,46.1667 258.5,47.5C 258.5,48.1667 258.5,48.8333 258.5,49.5C 258.755,52.6765 260.422,54.6765 263.5,55.5C 264.174,57.5165 265.341,59.1832 267,60.5C 267.49,61.7932 267.657,63.1266 267.5,64.5C 269.981,64.774 271.647,66.1073 272.5,68.5C 267.475,67.9849 264.809,65.1516 264.5,60C 262.221,58.4838 260.221,58.3172 258.5,59.5C 260.582,63.7473 263.249,67.5806 266.5,71C 266.043,71.414 265.709,71.914 265.5,72.5C 266.5,73.3333 267.5,74.1667 268.5,75C 267.233,76.7959 267.233,78.6293 268.5,80.5C 268.043,81.2975 267.376,81.6309 266.5,81.5C 266.25,79.326 265.25,77.6594 263.5,76.5C 261.688,72.8752 259.854,69.2086 258,65.5C 257.292,64.6195 256.458,63.9528 255.5,63.5C 252.184,58.522 248.517,53.8554 244.5,49.5C 243.615,45.9545 241.615,43.2878 238.5,41.5C 238.384,38.0897 240.05,36.7564 243.5,37.5 Z"/></g>
<g><path style="opacity:0.996" fill="#e8f4da" d="M 88.5,49.5 C 117.502,49.3334 146.502,49.5 175.5,50C 178.365,50.1829 181.031,50.6829 183.5,51.5C 181.833,51.5 180.167,51.5 178.5,51.5C 150.513,50.5903 122.513,50.2569 94.5,50.5C 92.8333,50.5 91.1667,50.5 89.5,50.5C 89.5,53.5 89.5,56.5 89.5,59.5C 89.5,72.8333 89.5,86.1667 89.5,99.5C 89.6716,100.492 89.3382,101.158 88.5,101.5C 88.5,84.1667 88.5,66.8333 88.5,49.5 Z"/></g>
<g><path style="opacity:1" fill="#7fa75a" d="M 258.5,47.5 C 260.5,48.8333 262.167,50.5 263.5,52.5C 261.589,51.925 259.922,50.925 258.5,49.5C 258.5,48.8333 258.5,48.1667 258.5,47.5 Z"/></g>
<g><path style="opacity:0.941" fill="#f8fef3" d="M 94.5,50.5 C 122.513,50.2569 150.513,50.5903 178.5,51.5C 179.694,52.2719 180.694,53.2719 181.5,54.5C 178.997,53.9155 176.497,53.2489 174,52.5C 148.442,53.4946 122.942,53.8279 97.5,53.5C 96.6935,52.2719 95.6935,51.2719 94.5,50.5 Z"/></g>
<g><path style="opacity:1" fill="#91bb6d" d="M 83.5,28.5 C 83.5,29.1667 83.5,29.8333 83.5,30.5C 80.7603,31.9221 78.427,33.9221 76.5,36.5C 74.5695,36.7706 73.2362,37.7706 72.5,39.5C 68.313,42.1399 64.313,45.1399 60.5,48.5C 59.5344,50.396 59.2011,52.396 59.5,54.5C 65.6992,56.2915 72.0325,56.7915 78.5,56C 79.7426,53.5451 81.7426,52.3784 84.5,52.5C 84.2155,54.4147 84.5489,56.0813 85.5,57.5C 85.5,59.8333 85.5,62.1667 85.5,64.5C 85.5,68.5 85.5,72.5 85.5,76.5C 85.0889,72.2062 84.0889,68.0395 82.5,64C 76.3312,62.9464 70.1645,62.1131 64,61.5C 63.3333,62.1667 62.6667,62.8333 62,63.5C 59.6667,62.1667 57.3333,62.1667 55,63.5C 54.5,62.5 54,61.5 53.5,60.5C 54.9902,59.1743 56.3235,57.6743 57.5,56C 57.1667,55.6667 56.8333,55.3333 56.5,55C 57.3547,52.5644 58.0213,50.0644 58.5,47.5C 60.1667,45.5 61.8333,43.5 63.5,41.5C 69.5225,36.1567 76.1892,31.8234 83.5,28.5 Z"/></g>
<g><path style="opacity:0.778" fill="#fdfefc" d="M 181.5,54.5 C 182.456,56.5158 183.79,58.3492 185.5,60C 182.059,61.3184 180.725,63.8184 181.5,67.5C 184.5,67.1667 185.833,68.5 185.5,71.5C 179.684,69.7014 173.684,69.0347 167.5,69.5C 158.339,68.8335 149.006,68.5002 139.5,68.5C 129.809,68.5016 120.475,69.1683 111.5,70.5C 111.5,78.8333 111.5,87.1667 111.5,95.5C 110.188,94.8549 109.188,93.8549 108.5,92.5C 110.26,89.7877 110.927,86.7877 110.5,83.5C 108.459,83.8541 106.626,83.8541 105,83.5C 104.921,74.7845 103.754,74.4512 101.5,82.5C 99.6634,83.8379 97.9967,85.3379 96.5,87C 98.2731,90.1255 97.4398,92.9588 94,95.5C 93.6667,95.1667 93.3333,94.8333 93,94.5C 92.7767,96.8808 91.61,98.5475 89.5,99.5C 89.5,86.1667 89.5,72.8333 89.5,59.5C 90.7899,60.0577 91.6232,61.0577 92,62.5C 93.1628,60.7148 93.8295,58.7148 94,56.5C 95.5185,55.8366 96.6851,54.8366 97.5,53.5C 122.942,53.8279 148.442,53.4946 174,52.5C 176.497,53.2489 178.997,53.9155 181.5,54.5 Z M 91.5,64.5 C 92.6491,64.7911 93.3158,65.6244 93.5,67C 93.3333,67.8333 93.1667,68.6667 93,69.5C 91.7308,68.0953 91.2308,66.4286 91.5,64.5 Z"/></g>
<g><path style="opacity:1" fill="#448a0a" d="M 42.5,68.5 C 40.4336,72.004 39.1003,75.6707 38.5,79.5C 36.9802,81.8902 35.9802,84.5568 35.5,87.5C 35.0538,79.6793 34.8872,72.0127 35,64.5C 34.586,64.0426 34.086,63.7093 33.5,63.5C 32.2729,66.9455 29.9396,69.2789 26.5,70.5C 29.0691,66.913 30.7357,62.913 31.5,58.5C 31.5,58.1667 31.5,57.8333 31.5,57.5C 35.0729,56.2433 38.0729,54.2433 40.5,51.5C 42.934,48.5624 45.6007,45.7291 48.5,43C 50.5675,42.3131 52.5675,42.4798 54.5,43.5C 55.5827,44.365 55.7494,45.365 55,46.5C 52.6938,49.4729 50.0272,52.1395 47,54.5C 46.51,55.7932 46.3433,57.1266 46.5,58.5C 45.5,58.5 44.5,58.5 43.5,58.5C 43.6621,60.5273 43.4955,62.5273 43,64.5C 42.2825,63.5494 41.4491,63.3828 40.5,64C 41.0989,65.6225 41.7656,67.1225 42.5,68.5 Z"/></g>
<g><path style="opacity:1" fill="#8eb86b" d="M 242.5,52.5 C 243.635,55.0773 245.469,57.0773 248,58.5C 249.559,60.2166 250.392,62.2166 250.5,64.5C 248.801,64.6602 247.134,64.4935 245.5,64C 243.944,62.401 242.277,60.901 240.5,59.5C 239.571,60.6888 239.238,62.0222 239.5,63.5C 234.167,63.5 228.833,63.5 223.5,63.5C 223.045,65.3666 222.378,67.1999 221.5,69C 221.387,70.6991 222.053,71.8658 223.5,72.5C 224.468,74.6074 224.802,76.9407 224.5,79.5C 224.167,79.5 223.833,79.5 223.5,79.5C 221.44,76.7598 219.774,73.7598 218.5,70.5C 218.075,67.8808 217.075,65.5475 215.5,63.5C 213.237,59.8971 210.57,56.5638 207.5,53.5C 210.106,52.3483 212.773,52.1816 215.5,53C 217.833,54.5 220.167,56 222.5,57.5C 223.308,57.1924 223.975,56.6924 224.5,56C 229.489,55.5007 234.489,55.3341 239.5,55.5C 239.351,54.448 239.517,53.448 240,52.5C 241.071,55.1125 241.905,55.1125 242.5,52.5 Z"/></g>
<g><path style="opacity:1" fill="#87b761" d="M 58.5,47.5 C 58.0213,50.0644 57.3547,52.5644 56.5,55C 56.8333,55.3333 57.1667,55.6667 57.5,56C 56.3235,57.6743 54.9902,59.1743 53.5,60.5C 54,61.5 54.5,62.5 55,63.5C 57.3333,62.1667 59.6667,62.1667 62,63.5C 62.6667,62.8333 63.3333,62.1667 64,61.5C 70.1645,62.1131 76.3312,62.9464 82.5,64C 84.0889,68.0395 85.0889,72.2062 85.5,76.5C 85.5,77.5 85.5,78.5 85.5,79.5C 85.5,80.8333 85.5,82.1667 85.5,83.5C 84.7972,81.3713 83.7972,79.3713 82.5,77.5C 83.1495,75.5648 83.4828,73.5648 83.5,71.5C 71.8597,72.5796 60.193,72.7462 48.5,72C 46.3428,68.7287 46.0095,65.2287 47.5,61.5C 49.7191,55.7451 53.3857,51.0784 58.5,47.5 Z"/></g>
<g><path style="opacity:1" fill="#89b862" d="M 215.5,29.5 C 217.693,30.6805 220.026,31.6805 222.5,32.5C 229.83,38.1626 237.163,43.8292 244.5,49.5C 248.517,53.8554 252.184,58.522 255.5,63.5C 255.39,67.6101 256.39,71.2767 258.5,74.5C 256.59,75.7047 255.257,75.038 254.5,72.5C 244.007,71.1768 233.674,71.1768 223.5,72.5C 222.053,71.8658 221.387,70.6991 221.5,69C 222.378,67.1999 223.045,65.3666 223.5,63.5C 228.833,63.5 234.167,63.5 239.5,63.5C 239.238,62.0222 239.571,60.6888 240.5,59.5C 242.277,60.901 243.944,62.401 245.5,64C 247.134,64.4935 248.801,64.6602 250.5,64.5C 250.392,62.2166 249.559,60.2166 248,58.5C 245.469,57.0773 243.635,55.0773 242.5,52.5C 240.273,51.5994 239.273,49.9328 239.5,47.5C 237.284,46.956 235.284,45.956 233.5,44.5C 229.886,41.2245 226.219,37.8911 222.5,34.5C 220.125,33.3395 217.792,32.3395 215.5,31.5C 216.506,31.0623 216.506,30.3957 215.5,29.5 Z"/></g>
<g><path style="opacity:1" fill="#609434" d="M 258.5,49.5 C 259.922,50.925 261.589,51.925 263.5,52.5C 270.751,60.6685 276.751,69.6685 281.5,79.5C 278.175,76.1677 275.175,72.5011 272.5,68.5C 271.647,66.1073 269.981,64.774 267.5,64.5C 267.657,63.1266 267.49,61.7932 267,60.5C 265.341,59.1832 264.174,57.5165 263.5,55.5C 260.422,54.6765 258.755,52.6765 258.5,49.5 Z"/></g>
<g><path style="opacity:0.98" fill="#f4fef0" d="M 167.5,69.5 C 148.757,69.1802 130.09,69.5135 111.5,70.5C 120.475,69.1683 129.809,68.5016 139.5,68.5C 149.006,68.5002 158.339,68.8335 167.5,69.5 Z"/></g>
<g><path style="opacity:0.959" fill="#eaf9dc" d="M 167.5,69.5 C 173.684,69.0347 179.684,69.7014 185.5,71.5C 186.167,72.5 186.833,73.5 187.5,74.5C 186.167,74.5 184.833,74.5 183.5,74.5C 181.22,72.7773 178.553,72.1107 175.5,72.5C 174.391,71.71 173.058,71.21 171.5,71C 152.167,70.3333 132.833,70.3333 113.5,71C 112.509,86.0886 112.176,101.255 112.5,116.5C 111.833,116.5 111.5,116.833 111.5,117.5C 111.226,110.362 111.226,103.029 111.5,95.5C 111.5,87.1667 111.5,78.8333 111.5,70.5C 130.09,69.5135 148.757,69.1802 167.5,69.5 Z"/></g>
<g><path style="opacity:1" fill="#83b55a" d="M 47.5,61.5 C 46.0095,65.2287 46.3428,68.7287 48.5,72C 60.193,72.7462 71.8597,72.5796 83.5,71.5C 83.4828,73.5648 83.1495,75.5648 82.5,77.5C 71.0856,79.4457 59.4189,80.1124 47.5,79.5C 47.3882,74.407 46.5549,74.407 45,79.5C 44.6258,78.5838 44.1258,77.7504 43.5,77C 44.2061,73.8688 44.8728,70.7021 45.5,67.5C 45.0302,66.537 44.3635,66.537 43.5,67.5C 44.4486,65.2228 45.7819,63.2228 47.5,61.5 Z"/></g>
<g><path style="opacity:1" fill="#8ab165" d="M 175.5,72.5 C 175.5,72.8333 175.5,73.1667 175.5,73.5C 156.497,73.3334 137.497,73.5001 118.5,74C 116.808,75.4007 116.141,77.2341 116.5,79.5C 116.167,79.5 115.833,79.5 115.5,79.5C 115.5,77.1667 115.5,74.8333 115.5,72.5C 135.5,72.5 155.5,72.5 175.5,72.5 Z"/></g>
<g><path style="opacity:1" fill="#93b276" d="M 175.5,72.5 C 155.5,72.5 135.5,72.5 115.5,72.5C 115.5,74.8333 115.5,77.1667 115.5,79.5C 114.955,91.8263 114.622,104.16 114.5,116.5C 113.51,122.645 113.177,128.978 113.5,135.5C 112.51,129.355 112.177,123.022 112.5,116.5C 112.176,101.255 112.509,86.0886 113.5,71C 132.833,70.3333 152.167,70.3333 171.5,71C 173.058,71.21 174.391,71.71 175.5,72.5 Z"/></g>
<g><path style="opacity:1" fill="#5a9229" d="M 31.5,58.5 C 30.7357,62.913 29.0691,66.913 26.5,70.5C 23.4642,73.2426 21.4642,76.576 20.5,80.5C 19.5,80.5 18.5,80.5 17.5,80.5C 16.9283,85.1343 15.5949,89.4676 13.5,93.5C 12.5275,95.1392 11.1942,96.4726 9.5,97.5C 14.5299,83.097 21.8632,70.097 31.5,58.5 Z"/></g>
<g><path style="opacity:1" fill="#82b659" d="M 175.5,73.5 C 177.888,75.2003 180.555,76.5336 183.5,77.5C 180.102,77.1417 176.935,77.8084 174,79.5C 164.914,79.0979 155.747,79.0979 146.5,79.5C 138.833,79.1667 131.167,78.8333 123.5,78.5C 124.804,76.9843 124.304,76.3176 122,76.5C 120.159,77.5617 118.326,78.5617 116.5,79.5C 116.141,77.2341 116.808,75.4007 118.5,74C 137.497,73.5001 156.497,73.3334 175.5,73.5 Z"/></g>
<g><path style="opacity:0.698" fill="#c4d9af" d="M 183.5,74.5 C 184.833,74.5 186.167,74.5 187.5,74.5C 188.5,75.8333 189.5,77.1667 190.5,78.5C 187.996,77.4161 185.663,76.0828 183.5,74.5 Z"/></g>
<g><path style="opacity:1" fill="#83b359" d="M 223.5,72.5 C 233.674,71.1768 244.007,71.1768 254.5,72.5C 255.257,75.038 256.59,75.7047 258.5,74.5C 259.043,74.56 259.376,74.8933 259.5,75.5C 258.985,77.2251 258.318,78.8917 257.5,80.5C 250.217,79.3682 242.883,79.2015 235.5,80C 235.833,80.3333 236.167,80.6667 236.5,81C 235.897,82.8254 235.23,84.6587 234.5,86.5C 233.396,83.9501 232.063,81.6168 230.5,79.5C 228.656,81.2789 227.99,83.6122 228.5,86.5C 228.083,83.8411 227.083,81.5078 225.5,79.5C 225.167,79.5 224.833,79.5 224.5,79.5C 224.802,76.9407 224.468,74.6074 223.5,72.5 Z"/></g>
<g><path style="opacity:1" fill="#7db251" d="M 183.5,77.5 C 185.036,80.0922 187.369,81.0922 190.5,80.5C 190.688,83.2061 191.688,85.5395 193.5,87.5C 171.989,85.9433 150.322,85.1099 128.5,85C 127.809,83.9326 127.309,82.7659 127,81.5C 125.483,86.1778 124.15,90.8444 123,95.5C 121.281,92.9751 120.114,90.3084 119.5,87.5C 117.631,89.6353 116.964,92.3019 117.5,95.5C 116.51,101.31 116.177,107.31 116.5,113.5C 116.5,114.5 116.5,115.5 116.5,116.5C 116.167,116.5 115.833,116.5 115.5,116.5C 115.167,116.5 114.833,116.5 114.5,116.5C 114.622,104.16 114.955,91.8263 115.5,79.5C 115.833,79.5 116.167,79.5 116.5,79.5C 118.326,78.5617 120.159,77.5617 122,76.5C 124.304,76.3176 124.804,76.9843 123.5,78.5C 131.167,78.8333 138.833,79.1667 146.5,79.5C 155.747,79.0979 164.914,79.0979 174,79.5C 176.935,77.8084 180.102,77.1417 183.5,77.5 Z"/></g>
<g><path style="opacity:1" fill="#8eae72" d="M 175.5,72.5 C 178.553,72.1107 181.22,72.7773 183.5,74.5C 185.663,76.0828 187.996,77.4161 190.5,78.5C 191.167,78.5 191.5,78.8333 191.5,79.5C 188.673,79.4162 186.006,78.7496 183.5,77.5C 180.555,76.5336 177.888,75.2003 175.5,73.5C 175.5,73.1667 175.5,72.8333 175.5,72.5 Z"/></g>
<g><path style="opacity:1" fill="#48920b" d="M 272.5,68.5 C 275.175,72.5011 278.175,76.1677 281.5,79.5C 281.742,83.479 282.742,87.1456 284.5,90.5C 284.629,92.2161 284.962,93.8828 285.5,95.5C 283.902,93.6048 282.568,91.4381 281.5,89C 279.956,87.8129 278.289,87.4795 276.5,88C 277.777,90.4659 277.777,92.9659 276.5,95.5C 274.866,95.032 273.7,94.032 273,92.5C 272.082,96.2797 271.249,99.9464 270.5,103.5C 269.833,103.5 269.167,103.5 268.5,103.5C 269.442,98.1946 269.609,92.8613 269,87.5C 268.8,85.6803 267.966,84.347 266.5,83.5C 266.5,82.8333 266.5,82.1667 266.5,81.5C 267.376,81.6309 268.043,81.2975 268.5,80.5C 267.233,78.6293 267.233,76.7959 268.5,75C 267.5,74.1667 266.5,73.3333 265.5,72.5C 265.709,71.914 266.043,71.414 266.5,71C 263.249,67.5806 260.582,63.7473 258.5,59.5C 260.221,58.3172 262.221,58.4838 264.5,60C 264.809,65.1516 267.475,67.9849 272.5,68.5 Z"/></g>
<g><path style="opacity:1" fill="#9ebc84" d="M 223.5,79.5 C 223.833,79.5 224.167,79.5 224.5,79.5C 224.833,79.5 225.167,79.5 225.5,79.5C 226.429,85.4533 227.096,91.4533 227.5,97.5C 225.804,91.6981 224.47,85.6981 223.5,79.5 Z"/></g>
<g><path style="opacity:1" fill="#7cb24f" d="M 255.5,63.5 C 256.458,63.9528 257.292,64.6195 258,65.5C 259.854,69.2086 261.688,72.8752 263.5,76.5C 263.871,82.8711 263.871,89.2044 263.5,95.5C 262.167,95.5 260.833,95.5 259.5,95.5C 259.031,92.6916 257.697,90.3582 255.5,88.5C 250.725,90.2078 245.725,91.0411 240.5,91C 239.833,92.3333 239.167,93.6667 238.5,95C 237.451,95.4922 236.451,95.3256 235.5,94.5C 232.99,89.8058 231.323,84.8058 230.5,79.5C 232.063,81.6168 233.396,83.9501 234.5,86.5C 235.23,84.6587 235.897,82.8254 236.5,81C 236.167,80.6667 235.833,80.3333 235.5,80C 242.883,79.2015 250.217,79.3682 257.5,80.5C 258.318,78.8917 258.985,77.2251 259.5,75.5C 259.376,74.8933 259.043,74.56 258.5,74.5C 256.39,71.2767 255.39,67.6101 255.5,63.5 Z"/></g>
<g><path style="opacity:1" fill="#7eb350" d="M 82.5,77.5 C 83.7972,79.3713 84.7972,81.3713 85.5,83.5C 85.5,87.5 85.5,91.5 85.5,95.5C 85.1667,95.5 84.8333,95.5 84.5,95.5C 84.1894,91.7408 82.8561,88.4075 80.5,85.5C 69.3522,87.4482 58.0188,88.1149 46.5,87.5C 45.7057,89.8728 44.7057,92.2062 43.5,94.5C 43.0431,95.2975 42.3764,95.6309 41.5,95.5C 40.3248,93.6162 39.6582,91.4495 39.5,89C 39.9312,81.8977 41.2645,75.0643 43.5,68.5C 43.5,68.1667 43.5,67.8333 43.5,67.5C 44.3635,66.537 45.0302,66.537 45.5,67.5C 44.8728,70.7021 44.2061,73.8688 43.5,77C 44.1258,77.7504 44.6258,78.5838 45,79.5C 46.5549,74.407 47.3882,74.407 47.5,79.5C 59.4189,80.1124 71.0856,79.4457 82.5,77.5 Z"/></g>
<g><path style="opacity:1" fill="#81af5d" d="M 183.5,77.5 C 186.006,78.7496 188.673,79.4162 191.5,79.5C 192.419,82.0892 194.086,84.0892 196.5,85.5C 196.704,88.5176 197.037,91.5176 197.5,94.5C 196.539,91.9453 195.206,89.612 193.5,87.5C 191.688,85.5395 190.688,83.2061 190.5,80.5C 187.369,81.0922 185.036,80.0922 183.5,77.5 Z"/></g>
<g><path style="opacity:1" fill="#a0be8a" d="M 191.5,79.5 C 193.914,80.9108 195.581,82.9108 196.5,85.5C 194.086,84.0892 192.419,82.0892 191.5,79.5 Z"/></g>
<g><path style="opacity:1" fill="#479609" d="M 35.5,87.5 C 34.7761,93.0083 35.7761,98.0083 38.5,102.5C 38.1667,102.833 37.8333,103.167 37.5,103.5C 36.1667,100.833 34.8333,100.833 33.5,103.5C 32.4024,99.6395 31.5691,99.6395 31,103.5C 30.5065,101.866 30.3398,100.199 30.5,98.5C 25.7863,98.8266 21.1196,98.4933 16.5,97.5C 15.4793,96.0986 14.4793,94.7653 13.5,93.5C 15.5949,89.4676 16.9283,85.1343 17.5,80.5C 18.5,80.5 19.5,80.5 20.5,80.5C 21.4642,76.576 23.4642,73.2426 26.5,70.5C 29.9396,69.2789 32.2729,66.9455 33.5,63.5C 34.086,63.7093 34.586,64.0426 35,64.5C 34.8872,72.0127 35.0538,79.6793 35.5,87.5 Z"/></g>
<g><path style="opacity:1" fill="#79b149" d="M 84.5,95.5 C 77.5,95.5 70.5,95.5 63.5,95.5C 63.7989,97.604 63.4656,99.604 62.5,101.5C 58.2652,99.6864 53.9319,98.0197 49.5,96.5C 46.3596,99.3766 43.693,99.0433 41.5,95.5C 42.3764,95.6309 43.0431,95.2975 43.5,94.5C 44.7057,92.2062 45.7057,89.8728 46.5,87.5C 58.0188,88.1149 69.3522,87.4482 80.5,85.5C 82.8561,88.4075 84.1894,91.7408 84.5,95.5 Z"/></g>
<g><path style="opacity:1" fill="#78b149" d="M 193.5,87.5 C 195.206,89.612 196.539,91.9453 197.5,94.5C 199.242,97.1445 199.909,100.145 199.5,103.5C 199.5,103.833 199.5,104.167 199.5,104.5C 199.167,104.5 198.833,104.5 198.5,104.5C 198.72,101.6 198.054,98.9329 196.5,96.5C 195.712,97.7701 194.712,98.7701 193.5,99.5C 192.603,100.598 191.77,100.598 191,99.5C 190.51,98.2068 190.343,96.8734 190.5,95.5C 167.967,95.1823 145.467,95.5157 123,96.5C 121.739,96.2409 120.739,95.5742 120,94.5C 119.503,92.1902 119.337,89.8568 119.5,87.5C 120.114,90.3084 121.281,92.9751 123,95.5C 124.15,90.8444 125.483,86.1778 127,81.5C 127.309,82.7659 127.809,83.9326 128.5,85C 150.322,85.1099 171.989,85.9433 193.5,87.5 Z"/></g>
<g><path style="opacity:1" fill="#659738" d="M 281.5,79.5 C 284.616,84.0697 286.95,89.0697 288.5,94.5C 287,93.3748 285.667,92.0414 284.5,90.5C 282.742,87.1456 281.742,83.479 281.5,79.5 Z"/></g>
<g><path style="opacity:1" fill="#89a967" d="M 85.5,64.5 C 86.9401,74.6328 87.6067,84.9661 87.5,95.5C 86.8333,90.1667 86.1667,84.8333 85.5,79.5C 85.5,78.5 85.5,77.5 85.5,76.5C 85.5,72.5 85.5,68.5 85.5,64.5 Z"/></g>
<g><path style="opacity:1" fill="#76b046" d="M 263.5,76.5 C 265.25,77.6594 266.25,79.326 266.5,81.5C 266.5,82.1667 266.5,82.8333 266.5,83.5C 265.675,87.6472 265.175,91.9805 265,96.5C 263.931,101.257 261.098,103.091 256.5,102C 248.37,99.591 240.037,97.4243 231.5,95.5C 230.571,96.6888 230.238,98.0222 230.5,99.5C 229.833,99.5 229.167,99.5 228.5,99.5C 228.5,95.1667 228.5,90.8333 228.5,86.5C 227.99,83.6122 228.656,81.2789 230.5,79.5C 231.323,84.8058 232.99,89.8058 235.5,94.5C 236.451,95.3256 237.451,95.4922 238.5,95C 239.167,93.6667 239.833,92.3333 240.5,91C 245.725,91.0411 250.725,90.2078 255.5,88.5C 257.697,90.3582 259.031,92.6916 259.5,95.5C 260.833,95.5 262.167,95.5 263.5,95.5C 263.871,89.2044 263.871,82.8711 263.5,76.5 Z"/></g>
<g><path style="opacity:1" fill="#56941d" d="M 284.5,90.5 C 285.667,92.0414 287,93.3748 288.5,94.5C 288.861,98.9155 290.194,102.915 292.5,106.5C 293.924,108.515 294.59,110.848 294.5,113.5C 294.5,114.833 294.5,116.167 294.5,117.5C 292.903,115.152 291.903,112.486 291.5,109.5C 288.888,104.966 286.888,100.299 285.5,95.5C 284.962,93.8828 284.629,92.2161 284.5,90.5 Z"/></g>
<g><path style="opacity:1" fill="#8fb270" d="M 196.5,85.5 C 198.136,86.7489 199.303,88.4156 200,90.5C 202.815,97.9381 202.982,105.271 200.5,112.5C 200.81,109.287 200.477,106.287 199.5,103.5C 199.909,100.145 199.242,97.1445 197.5,94.5C 197.037,91.5176 196.704,88.5176 196.5,85.5 Z"/></g>
<g><path style="opacity:1" fill="#74b043" d="M 42.5,68.5 C 42.8333,68.5 43.1667,68.5 43.5,68.5C 41.2645,75.0643 39.9312,81.8977 39.5,89C 39.6582,91.4495 40.3248,93.6162 41.5,95.5C 43.693,99.0433 46.3596,99.3766 49.5,96.5C 53.9319,98.0197 58.2652,99.6864 62.5,101.5C 63.4656,99.604 63.7989,97.604 63.5,95.5C 70.5,95.5 77.5,95.5 84.5,95.5C 84.8333,95.5 85.1667,95.5 85.5,95.5C 85.9157,100.493 86.2491,105.493 86.5,110.5C 85.8333,110.5 85.5,110.167 85.5,109.5C 85.9794,105.684 84.9794,102.35 82.5,99.5C 79.7181,102.94 76.0515,104.273 71.5,103.5C 63.6155,103.291 56.1155,101.624 49,98.5C 47.5341,100.325 45.7008,100.825 43.5,100C 41.6937,98.1937 39.8604,96.3604 38,94.5C 37.5034,92.1902 37.3367,89.8568 37.5,87.5C 37.8333,84.8333 38.1667,82.1667 38.5,79.5C 39.1003,75.6707 40.4336,72.004 42.5,68.5 Z"/></g>
<g><path style="opacity:1" fill="#72ae40" d="M 119.5,87.5 C 119.337,89.8568 119.503,92.1902 120,94.5C 120.739,95.5742 121.739,96.2409 123,96.5C 145.467,95.5157 167.967,95.1823 190.5,95.5C 190.343,96.8734 190.51,98.2068 191,99.5C 191.77,100.598 192.603,100.598 193.5,99.5C 193.03,100.693 192.03,101.36 190.5,101.5C 187.108,101.111 183.775,100.444 180.5,99.5C 178.499,95.7106 176.499,95.8772 174.5,100C 159.167,100.667 143.833,100.667 128.5,100C 128,99.5 127.5,99 127,98.5C 125.625,100.937 125.125,103.603 125.5,106.5C 125.803,109.588 124.47,111.254 121.5,111.5C 121.163,106.462 120.496,101.462 119.5,96.5C 118.817,96.1373 118.15,95.8039 117.5,95.5C 116.964,92.3019 117.631,89.6353 119.5,87.5 Z"/></g>
<g><path style="opacity:1" fill="#529c17" d="M 38.5,79.5 C 38.1667,82.1667 37.8333,84.8333 37.5,87.5C 36.3592,90.6399 36.1925,93.9733 37,97.5C 37.4652,98.9308 38.2986,100.097 39.5,101C 52.8122,103.496 66.1455,105.663 79.5,107.5C 81.3726,107.518 81.7059,107.018 80.5,106C 81.0253,105.308 81.6919,104.808 82.5,104.5C 83.9348,105.947 84.9348,107.614 85.5,109.5C 85.5,110.167 85.8333,110.5 86.5,110.5C 86.8333,110.5 87.1667,110.5 87.5,110.5C 87.5,110.833 87.5,111.167 87.5,111.5C 87.5,152.167 87.5,192.833 87.5,233.5C 87.1667,233.5 86.8333,233.5 86.5,233.5C 86.646,209.158 86.3127,184.824 85.5,160.5C 85.5,150.5 85.5,140.5 85.5,130.5C 85.5,124.167 85.5,117.833 85.5,111.5C 75.4679,111.729 65.4679,111.396 55.5,110.5C 55.5,109.5 55.5,108.5 55.5,107.5C 47.8261,107.334 40.1594,107.5 32.5,108C 35.2764,109.779 34.9431,110.779 31.5,111C 25.1754,111.5 18.8421,111.666 12.5,111.5C 12.8841,109.335 12.2174,107.668 10.5,106.5C 9.23188,108.304 8.56522,110.304 8.5,112.5C 9.5,112.5 10.5,112.5 11.5,112.5C 11.7852,114.288 11.4519,115.955 10.5,117.5C 7.98242,116.418 5.98242,117.085 4.5,119.5C 4.5,117.5 4.5,115.5 4.5,113.5C 4.5,112.833 4.5,112.167 4.5,111.5C 7.89842,107.618 9.56508,102.951 9.5,97.5C 11.1942,96.4726 12.5275,95.1392 13.5,93.5C 14.4793,94.7653 15.4793,96.0986 16.5,97.5C 21.1196,98.4933 25.7863,98.8266 30.5,98.5C 30.3398,100.199 30.5065,101.866 31,103.5C 31.5691,99.6395 32.4024,99.6395 33.5,103.5C 34.8333,100.833 36.1667,100.833 37.5,103.5C 37.8333,103.167 38.1667,102.833 38.5,102.5C 35.7761,98.0083 34.7761,93.0083 35.5,87.5C 35.9802,84.5568 36.9802,81.8902 38.5,79.5 Z"/></g>
<g><path style="opacity:1" fill="#4b9a0b" d="M 285.5,95.5 C 286.888,100.299 288.888,104.966 291.5,109.5C 289.883,110.589 289.05,112.256 289,114.5C 288.626,113.584 288.126,112.75 287.5,112C 280.508,111.5 273.508,111.334 266.5,111.5C 267.29,110.206 268.29,109.039 269.5,108C 269.167,107.667 268.833,107.333 268.5,107C 269.823,106.184 270.489,105.017 270.5,103.5C 271.249,99.9464 272.082,96.2797 273,92.5C 273.7,94.032 274.866,95.032 276.5,95.5C 277.777,92.9659 277.777,90.4659 276.5,88C 278.289,87.4795 279.956,87.8129 281.5,89C 282.568,91.4381 283.902,93.6048 285.5,95.5 Z"/></g>
<g><path style="opacity:1" fill="#7da94e" d="M 288.5,94.5 C 290.806,98.0845 292.139,102.085 292.5,106.5C 290.194,102.915 288.861,98.9155 288.5,94.5 Z"/></g>
<g><path style="opacity:1" fill="#6eaf3a" d="M 193.5,99.5 C 194.712,98.7701 195.712,97.7701 196.5,96.5C 198.054,98.9329 198.72,101.6 198.5,104.5C 198.167,104.5 197.833,104.5 197.5,104.5C 197.769,102.571 197.269,100.905 196,99.5C 194.89,101.243 193.39,102.576 191.5,103.5C 183.136,103.483 175.47,105.483 168.5,109.5C 155.199,108.85 141.866,108.184 128.5,107.5C 127.867,105.481 126.867,105.147 125.5,106.5C 125.125,103.603 125.625,100.937 127,98.5C 127.5,99 128,99.5 128.5,100C 143.833,100.667 159.167,100.667 174.5,100C 176.499,95.8772 178.499,95.7106 180.5,99.5C 183.775,100.444 187.108,101.111 190.5,101.5C 192.03,101.36 193.03,100.693 193.5,99.5 Z"/></g>
<g><path style="opacity:1" fill="#7ea759" d="M 85.5,79.5 C 86.1667,84.8333 86.8333,90.1667 87.5,95.5C 87.5,100.5 87.5,105.5 87.5,110.5C 87.1667,110.5 86.8333,110.5 86.5,110.5C 86.2491,105.493 85.9157,100.493 85.5,95.5C 85.5,91.5 85.5,87.5 85.5,83.5C 85.5,82.1667 85.5,80.8333 85.5,79.5 Z"/></g>
<g><path style="opacity:1" fill="#71af3c" d="M 266.5,83.5 C 267.966,84.347 268.8,85.6803 269,87.5C 269.609,92.8613 269.442,98.1946 268.5,103.5C 268.167,103.5 267.833,103.5 267.5,103.5C 265.325,103.682 263.325,104.349 261.5,105.5C 254.455,102.659 247.122,101.326 239.5,101.5C 236.37,101.3 233.37,100.634 230.5,99.5C 230.238,98.0222 230.571,96.6888 231.5,95.5C 240.037,97.4243 248.37,99.591 256.5,102C 261.098,103.091 263.931,101.257 265,96.5C 265.175,91.9805 265.675,87.6472 266.5,83.5 Z"/></g>
<g><path style="opacity:1" fill="#6eb039" d="M 37.5,87.5 C 37.3367,89.8568 37.5034,92.1902 38,94.5C 39.8604,96.3604 41.6937,98.1937 43.5,100C 45.7008,100.825 47.5341,100.325 49,98.5C 56.1155,101.624 63.6155,103.291 71.5,103.5C 76.0515,104.273 79.7181,102.94 82.5,99.5C 84.9794,102.35 85.9794,105.684 85.5,109.5C 84.9348,107.614 83.9348,105.947 82.5,104.5C 81.6919,104.808 81.0253,105.308 80.5,106C 81.7059,107.018 81.3726,107.518 79.5,107.5C 66.1455,105.663 52.8122,103.496 39.5,101C 38.2986,100.097 37.4652,98.9308 37,97.5C 36.1925,93.9733 36.3592,90.6399 37.5,87.5 Z"/></g>
<g><path style="opacity:1" fill="#6bb034" d="M 239.5,101.5 C 247.122,101.326 254.455,102.659 261.5,105.5C 263.325,104.349 265.325,103.682 267.5,103.5C 267.5,104.5 267.5,105.5 267.5,106.5C 264.744,108.293 261.577,109.293 258,109.5C 256.167,109.333 254.333,109.167 252.5,109C 248.517,105.727 244.184,103.227 239.5,101.5 Z"/></g>
<g><path style="opacity:1" fill="#6baf35" d="M 117.5,95.5 C 118.15,95.8039 118.817,96.1373 119.5,96.5C 120.496,101.462 121.163,106.462 121.5,111.5C 124.47,111.254 125.803,109.588 125.5,106.5C 126.867,105.147 127.867,105.481 128.5,107.5C 141.866,108.184 155.199,108.85 168.5,109.5C 175.47,105.483 183.136,103.483 191.5,103.5C 193.39,102.576 194.89,101.243 196,99.5C 197.269,100.905 197.769,102.571 197.5,104.5C 195.901,104.232 194.568,104.566 193.5,105.5C 185.937,107.641 178.27,109.307 170.5,110.5C 164.325,110.622 158.158,110.955 152,111.5C 146.773,112.898 141.44,113.898 136,114.5C 133.5,114.333 131,114.167 128.5,114C 127.953,113.075 127.287,112.242 126.5,111.5C 123.942,116.646 121.609,116.646 119.5,111.5C 118.482,112.193 117.482,112.859 116.5,113.5C 116.177,107.31 116.51,101.31 117.5,95.5 Z"/></g>
<g><path style="opacity:1" fill="#70a349" d="M 9.5,97.5 C 9.56508,102.951 7.89842,107.618 4.5,111.5C 5.79578,106.607 7.46244,101.94 9.5,97.5 Z"/></g>
<g><path style="opacity:1" fill="#4d9f0a" d="M 85.5,130.5 C 84.8763,128.166 84.043,125.833 83,123.5C 82.2515,125.332 81.2515,126.999 80,128.5C 56.9059,127.672 33.7392,127.172 10.5,127C 9.88388,124.821 8.71721,122.988 7,121.5C 6.66667,126.167 6.33333,130.833 6,135.5C 5.66667,134.5 5.33333,133.5 5,132.5C 4.57619,135.025 3.40953,137.025 1.5,138.5C 1.16667,136.5 0.833333,134.5 0.5,132.5C 0.5,132.167 0.5,131.833 0.5,131.5C 1.58617,131.38 2.25284,130.713 2.5,129.5C 3.16917,126.148 3.83583,122.815 4.5,119.5C 5.98242,117.085 7.98242,116.418 10.5,117.5C 11.4519,115.955 11.7852,114.288 11.5,112.5C 10.5,112.5 9.5,112.5 8.5,112.5C 8.56522,110.304 9.23188,108.304 10.5,106.5C 12.2174,107.668 12.8841,109.335 12.5,111.5C 18.8421,111.666 25.1754,111.5 31.5,111C 34.9431,110.779 35.2764,109.779 32.5,108C 40.1594,107.5 47.8261,107.334 55.5,107.5C 55.5,108.5 55.5,109.5 55.5,110.5C 65.4679,111.396 75.4679,111.729 85.5,111.5C 85.5,117.833 85.5,124.167 85.5,130.5 Z"/></g>
<g><path style="opacity:1" fill="#80ab5c" d="M 225.5,79.5 C 227.083,81.5078 228.083,83.8411 228.5,86.5C 228.5,90.8333 228.5,95.1667 228.5,99.5C 228.609,104.86 228.276,110.193 227.5,115.5C 227.415,117.333 226.748,118.666 225.5,119.5C 226.849,112.1 227.516,104.767 227.5,97.5C 227.096,91.4533 226.429,85.4533 225.5,79.5 Z"/></g>
<g><path style="opacity:1" fill="#509a16" d="M 228.5,99.5 C 229.167,99.5 229.833,99.5 230.5,99.5C 233.37,100.634 236.37,101.3 239.5,101.5C 244.184,103.227 248.517,105.727 252.5,109C 254.333,109.167 256.167,109.333 258,109.5C 261.577,109.293 264.744,108.293 267.5,106.5C 267.5,105.5 267.5,104.5 267.5,103.5C 267.833,103.5 268.167,103.5 268.5,103.5C 269.167,103.5 269.833,103.5 270.5,103.5C 270.489,105.017 269.823,106.184 268.5,107C 268.833,107.333 269.167,107.667 269.5,108C 268.29,109.039 267.29,110.206 266.5,111.5C 259.825,111.666 253.158,111.5 246.5,111C 245.167,110.333 243.833,109.667 242.5,109C 242.833,108.667 243.167,108.333 243.5,108C 239.799,107.41 236.132,107.077 232.5,107C 230.098,112.132 228.765,117.632 228.5,123.5C 227.719,124.729 227.219,126.062 227,127.5C 226.329,128.252 225.496,128.586 224.5,128.5C 224.5,127.167 224.5,125.833 224.5,124.5C 224.366,122.708 224.699,121.042 225.5,119.5C 226.748,118.666 227.415,117.333 227.5,115.5C 228.276,110.193 228.609,104.86 228.5,99.5 Z"/></g>
<g><path style="opacity:1" fill="#6e9b45" d="M 199.5,103.5 C 200.477,106.287 200.81,109.287 200.5,112.5C 199.885,118.404 197.218,123.071 192.5,126.5C 193.785,122.031 195.785,117.865 198.5,114C 199.256,110.875 199.589,107.709 199.5,104.5C 199.5,104.167 199.5,103.833 199.5,103.5 Z"/></g>
<g><path style="opacity:1" fill="#4da00c" d="M 266.5,111.5 C 273.508,111.334 280.508,111.5 287.5,112C 288.126,112.75 288.626,113.584 289,114.5C 289.05,112.256 289.883,110.589 291.5,109.5C 291.903,112.486 292.903,115.152 294.5,117.5C 294.804,120.522 295.304,123.522 296,126.5C 296.383,127.056 296.883,127.389 297.5,127.5C 297.5,127.833 297.5,128.167 297.5,128.5C 297.916,133.493 298.249,138.493 298.5,143.5C 297.687,141.739 296.687,140.072 295.5,138.5C 295.5,138.167 295.5,137.833 295.5,137.5C 294.077,132.284 293.244,126.951 293,121.5C 292.311,120.643 291.478,119.977 290.5,119.5C 289.223,122.034 289.223,124.534 290.5,127C 289.929,128.205 289.262,129.372 288.5,130.5C 287.614,129.675 287.281,128.675 287.5,127.5C 271.833,127.5 256.167,127.5 240.5,127.5C 239.364,117.889 238.198,117.556 237,126.5C 235.693,127.772 234.193,128.772 232.5,129.5C 232.709,130.086 233.043,130.586 233.5,131C 230.863,134.817 227.196,136.484 222.5,136C 221.001,138.328 219.334,140.495 217.5,142.5C 217.158,143.338 216.492,143.672 215.5,143.5C 216.84,140.471 218.173,137.471 219.5,134.5C 221.949,133.06 223.615,131.06 224.5,128.5C 225.496,128.586 226.329,128.252 227,127.5C 227.219,126.062 227.719,124.729 228.5,123.5C 228.765,117.632 230.098,112.132 232.5,107C 236.132,107.077 239.799,107.41 243.5,108C 243.167,108.333 242.833,108.667 242.5,109C 243.833,109.667 245.167,110.333 246.5,111C 253.158,111.5 259.825,111.666 266.5,111.5 Z"/></g>
<g><path style="opacity:1" fill="#67af2c" d="M 170.5,110.5 C 153.022,115.766 135.022,117.766 116.5,116.5C 116.5,115.5 116.5,114.5 116.5,113.5C 117.482,112.859 118.482,112.193 119.5,111.5C 121.609,116.646 123.942,116.646 126.5,111.5C 127.287,112.242 127.953,113.075 128.5,114C 131,114.167 133.5,114.333 136,114.5C 141.44,113.898 146.773,112.898 152,111.5C 158.158,110.955 164.325,110.622 170.5,110.5 Z"/></g>
<g><path style="opacity:1" fill="#4da00a" d="M 193.5,105.5 C 194.568,104.566 195.901,104.232 197.5,104.5C 197.808,106.924 197.474,109.257 196.5,111.5C 194.334,114.173 192.834,117.173 192,120.5C 191.505,122.473 191.338,124.473 191.5,126.5C 189.473,126.338 187.473,126.505 185.5,127C 182.909,129.117 180.242,130.95 177.5,132.5C 176.833,132.5 176.167,132.5 175.5,132.5C 177.141,130.742 179.141,129.242 181.5,128C 174.178,127.715 166.845,127.549 159.5,127.5C 159.5,126.5 159.5,125.5 159.5,124.5C 148.41,125.13 137.577,124.463 127,122.5C 125.731,123.905 125.231,125.571 125.5,127.5C 126.874,129.051 125.207,128.884 120.5,127C 118.782,122.254 117.782,122.421 117.5,127.5C 116.2,124.976 116.2,122.309 117.5,119.5C 120.318,120.929 121.651,123.262 121.5,126.5C 122.5,126.5 123.5,126.5 124.5,126.5C 124.575,123.794 124.908,121.127 125.5,118.5C 141.946,119.713 158.28,121.047 174.5,122.5C 174.5,121.5 174.5,120.5 174.5,119.5C 172.801,119.66 171.134,119.494 169.5,119C 171.631,118.457 173.631,117.624 175.5,116.5C 174.289,115.28 174.289,114.113 175.5,113C 180.785,111.974 186.118,111.307 191.5,111C 193.004,109.663 194.004,107.996 194.5,106C 194.272,105.601 193.938,105.435 193.5,105.5 Z"/></g>
<g><path style="opacity:1" fill="#4f9e10" d="M 193.5,105.5 C 193.938,105.435 194.272,105.601 194.5,106C 194.004,107.996 193.004,109.663 191.5,111C 186.118,111.307 180.785,111.974 175.5,113C 174.289,114.113 174.289,115.28 175.5,116.5C 173.631,117.624 171.631,118.457 169.5,119C 171.134,119.494 172.801,119.66 174.5,119.5C 174.5,120.5 174.5,121.5 174.5,122.5C 158.28,121.047 141.946,119.713 125.5,118.5C 124.908,121.127 124.575,123.794 124.5,126.5C 123.5,126.5 122.5,126.5 121.5,126.5C 121.651,123.262 120.318,120.929 117.5,119.5C 116.2,122.309 116.2,124.976 117.5,127.5C 117.5,129.5 117.5,131.5 117.5,133.5C 116.883,133.389 116.383,133.056 116,132.5C 115.501,127.177 115.334,121.844 115.5,116.5C 115.833,116.5 116.167,116.5 116.5,116.5C 135.022,117.766 153.022,115.766 170.5,110.5C 178.27,109.307 185.937,107.641 193.5,105.5 Z"/></g>
<g><path style="opacity:1" fill="#539a17" d="M 197.5,104.5 C 197.833,104.5 198.167,104.5 198.5,104.5C 198.833,104.5 199.167,104.5 199.5,104.5C 199.589,107.709 199.256,110.875 198.5,114C 195.785,117.865 193.785,122.031 192.5,126.5C 192.5,127.167 192.167,127.5 191.5,127.5C 186.817,129.177 182.151,130.844 177.5,132.5C 180.242,130.95 182.909,129.117 185.5,127C 187.473,126.505 189.473,126.338 191.5,126.5C 191.338,124.473 191.505,122.473 192,120.5C 192.834,117.173 194.334,114.173 196.5,111.5C 197.474,109.257 197.808,106.924 197.5,104.5 Z"/></g>
<g><path style="opacity:1" fill="#6ea442" d="M 4.5,113.5 C 4.5,115.5 4.5,117.5 4.5,119.5C 3.83583,122.815 3.16917,126.148 2.5,129.5C 2.25284,130.713 1.58617,131.38 0.5,131.5C 1.4178,125.289 2.75113,119.289 4.5,113.5 Z"/></g>
<g><path style="opacity:1" fill="#6ca143" d="M 294.5,113.5 C 296.13,117.911 297.13,122.578 297.5,127.5C 296.883,127.389 296.383,127.056 296,126.5C 295.304,123.522 294.804,120.522 294.5,117.5C 294.5,116.167 294.5,114.833 294.5,113.5 Z"/></g>
<g><path style="opacity:1" fill="#50a50a" d="M 85.5,130.5 C 85.5,140.5 85.5,150.5 85.5,160.5C 84.8333,160.5 84.5,160.167 84.5,159.5C 84.9155,153.048 84.4155,146.715 83,140.5C 80.9519,143.813 79.9519,147.479 80,151.5C 79.5026,148.854 79.3359,146.187 79.5,143.5C 55.1044,142.849 30.9378,143.516 7,145.5C 6.66667,145.167 6.33333,144.833 6,144.5C 5.66667,146.833 5.33333,149.167 5,151.5C 1.85327,147.794 0.686599,143.461 1.5,138.5C 3.40953,137.025 4.57619,135.025 5,132.5C 5.33333,133.5 5.66667,134.5 6,135.5C 6.33333,130.833 6.66667,126.167 7,121.5C 8.71721,122.988 9.88388,124.821 10.5,127C 33.7392,127.172 56.9059,127.672 80,128.5C 81.2515,126.999 82.2515,125.332 83,123.5C 84.043,125.833 84.8763,128.166 85.5,130.5 Z"/></g>
<g><path style="opacity:1" fill="#4da40b" d="M 175.5,132.5 C 175.5,132.833 175.5,133.167 175.5,133.5C 156.167,133.5 136.833,133.5 117.5,133.5C 117.5,131.5 117.5,129.5 117.5,127.5C 117.782,122.421 118.782,122.254 120.5,127C 125.207,128.884 126.874,129.051 125.5,127.5C 125.231,125.571 125.731,123.905 127,122.5C 137.577,124.463 148.41,125.13 159.5,124.5C 159.5,125.5 159.5,126.5 159.5,127.5C 166.845,127.549 174.178,127.715 181.5,128C 179.141,129.242 177.141,130.742 175.5,132.5 Z"/></g>
<g><path style="opacity:0.367" fill="#cbe8ae" d="M 112.5,116.5 C 112.177,123.022 112.51,129.355 113.5,135.5C 132.5,135.5 151.5,135.5 170.5,135.5C 150.989,136.92 131.322,137.253 111.5,136.5C 111.5,130.167 111.5,123.833 111.5,117.5C 111.5,116.833 111.833,116.5 112.5,116.5 Z"/></g>
<g><path style="opacity:1" fill="#80ab55" d="M 191.5,127.5 C 185.945,132.691 179.278,135.357 171.5,135.5C 171.5,135.167 171.5,134.833 171.5,134.5C 173.099,134.768 174.432,134.434 175.5,133.5C 175.5,133.167 175.5,132.833 175.5,132.5C 176.167,132.5 176.833,132.5 177.5,132.5C 182.151,130.844 186.817,129.177 191.5,127.5 Z"/></g>
<g><path style="opacity:1" fill="#73a24d" d="M 224.5,124.5 C 224.5,125.833 224.5,127.167 224.5,128.5C 223.615,131.06 221.949,133.06 219.5,134.5C 221.186,131.128 222.853,127.795 224.5,124.5 Z"/></g>
<g><path style="opacity:1" fill="#589b22" d="M 114.5,116.5 C 114.833,116.5 115.167,116.5 115.5,116.5C 115.334,121.844 115.501,127.177 116,132.5C 116.383,133.056 116.883,133.389 117.5,133.5C 136.833,133.5 156.167,133.5 175.5,133.5C 174.432,134.434 173.099,134.768 171.5,134.5C 152.83,134.667 134.164,134.5 115.5,134C 114.525,128.259 114.192,122.425 114.5,116.5 Z"/></g>
<g><path style="opacity:1" fill="#5e9231" d="M 114.5,116.5 C 114.192,122.425 114.525,128.259 115.5,134C 134.164,134.5 152.83,134.667 171.5,134.5C 171.5,134.833 171.5,135.167 171.5,135.5C 171.167,135.5 170.833,135.5 170.5,135.5C 151.5,135.5 132.5,135.5 113.5,135.5C 113.177,128.978 113.51,122.645 114.5,116.5 Z"/></g>
<g><path style="opacity:1" fill="#51a60b" d="M 295.5,137.5 C 294.518,136.859 293.518,136.193 292.5,135.5C 291.205,138.012 290.539,140.679 290.5,143.5C 266.134,143.804 241.801,143.471 217.5,142.5C 219.334,140.495 221.001,138.328 222.5,136C 227.196,136.484 230.863,134.817 233.5,131C 233.043,130.586 232.709,130.086 232.5,129.5C 234.193,128.772 235.693,127.772 237,126.5C 238.198,117.556 239.364,117.889 240.5,127.5C 256.167,127.5 271.833,127.5 287.5,127.5C 287.281,128.675 287.614,129.675 288.5,130.5C 289.262,129.372 289.929,128.205 290.5,127C 289.223,124.534 289.223,122.034 290.5,119.5C 291.478,119.977 292.311,120.643 293,121.5C 293.244,126.951 294.077,132.284 295.5,137.5 Z"/></g>
<g><path style="opacity:0.761" fill="#97d85c" d="M 297.5,128.5 C 298.167,129.833 298.833,131.167 299.5,132.5C 299.5,136.167 299.5,139.833 299.5,143.5C 299.167,143.5 298.833,143.5 298.5,143.5C 298.249,138.493 297.916,133.493 297.5,128.5 Z"/></g>
<g><path style="opacity:1" fill="#55ac0f" d="M -0.5,132.5 C -0.166667,132.5 0.166667,132.5 0.5,132.5C 0.833333,134.5 1.16667,136.5 1.5,138.5C 0.686599,143.461 1.85327,147.794 5,151.5C 5.33333,149.167 5.66667,146.833 6,144.5C 6.33333,144.833 6.66667,145.167 7,145.5C 30.9378,143.516 55.1044,142.849 79.5,143.5C 79.3359,146.187 79.5026,148.854 80,151.5C 79.9519,147.479 80.9519,143.813 83,140.5C 84.4155,146.715 84.9155,153.048 84.5,159.5C 61.2582,159.563 37.5916,159.563 13.5,159.5C 13.5591,162.962 12.5591,165.962 10.5,168.5C 7.92404,166.122 6.92404,163.122 7.5,159.5C 5.83333,159.5 4.16667,159.5 2.5,159.5C 3.81486,164.744 4.48153,170.077 4.5,175.5C 3.74867,172.754 2.74867,170.087 1.5,167.5C 1.16667,167.5 0.833333,167.5 0.5,167.5C 0.166667,167.5 -0.166667,167.5 -0.5,167.5C -0.5,155.833 -0.5,144.167 -0.5,132.5 Z"/></g>
<g><path style="opacity:1" fill="#54ab0d" d="M 295.5,137.5 C 295.5,137.833 295.5,138.167 295.5,138.5C 295.874,141.972 294.874,144.972 292.5,147.5C 293.364,149.197 294.697,150.363 296.5,151C 295.186,151.985 294.186,153.152 293.5,154.5C 292.5,154.5 291.5,154.5 290.5,154.5C 290.66,152.801 290.494,151.134 290,149.5C 289.333,148.167 288.667,148.167 288,149.5C 287.502,152.817 287.335,156.15 287.5,159.5C 266.497,159.667 245.497,159.5 224.5,159C 223.929,157.795 223.262,156.628 222.5,155.5C 220.385,159.878 216.885,161.545 212,160.5C 209.833,160.333 207.667,160.167 205.5,160C 204.027,159.29 203.36,158.124 203.5,156.5C 198.814,156.522 194.48,157.688 190.5,160C 169.833,160.333 149.167,160.667 128.5,161C 126.364,163.9 124.697,167.066 123.5,170.5C 122.135,167.168 121.135,163.835 120.5,160.5C 120.5,160.167 120.5,159.833 120.5,159.5C 142.836,159.667 165.169,159.5 187.5,159C 188.858,158.066 190.192,157.232 191.5,156.5C 191.842,155.662 192.508,155.328 193.5,155.5C 195.564,155.313 197.564,154.813 199.5,154C 204.966,150.701 210.299,147.201 215.5,143.5C 216.492,143.672 217.158,143.338 217.5,142.5C 241.801,143.471 266.134,143.804 290.5,143.5C 290.539,140.679 291.205,138.012 292.5,135.5C 293.518,136.193 294.518,136.859 295.5,137.5 Z"/></g>
<g><path style="opacity:1" fill="#5cad1c" d="M 295.5,138.5 C 296.687,140.072 297.687,141.739 298.5,143.5C 298.833,143.5 299.167,143.5 299.5,143.5C 299.5,151.167 299.5,158.833 299.5,166.5C 298.833,166.5 298.5,166.833 298.5,167.5C 297.25,167.577 296.417,168.244 296,169.5C 295.597,174.867 294.93,180.201 294,185.5C 293.156,189.229 291.656,192.563 289.5,195.5C 289.5,194.833 289.5,194.167 289.5,193.5C 289.5,192.833 289.5,192.167 289.5,191.5C 290.768,189.095 291.435,186.428 291.5,183.5C 292.117,183.389 292.617,183.056 293,182.5C 293.345,176.153 293.845,169.82 294.5,163.5C 294.674,161.307 294.007,159.473 292.5,158C 293.337,156.989 293.67,155.822 293.5,154.5C 294.186,153.152 295.186,151.985 296.5,151C 294.697,150.363 293.364,149.197 292.5,147.5C 294.874,144.972 295.874,141.972 295.5,138.5 Z"/></g>
<g><path style="opacity:1" fill="#69a03a" d="M 219.5,134.5 C 218.173,137.471 216.84,140.471 215.5,143.5C 210.299,147.201 204.966,150.701 199.5,154C 197.564,154.813 195.564,155.313 193.5,155.5C 194.167,154.833 194.833,154.167 195.5,153.5C 204.675,148.659 212.675,142.326 219.5,134.5 Z"/></g>
<g><path style="opacity:0.253" fill="#fbfbf8" d="M 113.5,155.5 C 113.167,155.5 112.833,155.5 112.5,155.5C 111.438,154.425 111.438,153.425 112.5,152.5C 113.386,153.325 113.719,154.325 113.5,155.5 Z"/></g>
<g><path style="opacity:1" fill="#89b961" d="M 195.5,153.5 C 194.833,154.167 194.167,154.833 193.5,155.5C 192.508,155.328 191.842,155.662 191.5,156.5C 188.615,156.194 185.948,156.527 183.5,157.5C 180.833,157.5 178.167,157.5 175.5,157.5C 175.5,157.167 175.5,156.833 175.5,156.5C 182.313,156.241 188.979,155.241 195.5,153.5 Z"/></g>
<g><path style="opacity:1" fill="#54b10b" d="M 293.5,154.5 C 293.67,155.822 293.337,156.989 292.5,158C 294.007,159.473 294.674,161.307 294.5,163.5C 293.845,169.82 293.345,176.153 293,182.5C 292.617,183.056 292.117,183.389 291.5,183.5C 291.723,181.658 292.057,179.825 292.5,178C 291.37,175.593 290.537,173.093 290,170.5C 289.506,172.134 289.34,173.801 289.5,175.5C 248.824,175.793 208.158,175.459 167.5,174.5C 153.509,175.2 139.509,175.7 125.5,176C 124.761,179.487 123.927,182.987 123,186.5C 119.619,178.142 118.785,169.476 120.5,160.5C 121.135,163.835 122.135,167.168 123.5,170.5C 124.697,167.066 126.364,163.9 128.5,161C 149.167,160.667 169.833,160.333 190.5,160C 194.48,157.688 198.814,156.522 203.5,156.5C 203.36,158.124 204.027,159.29 205.5,160C 207.667,160.167 209.833,160.333 212,160.5C 216.885,161.545 220.385,159.878 222.5,155.5C 223.262,156.628 223.929,157.795 224.5,159C 245.497,159.5 266.497,159.667 287.5,159.5C 287.335,156.15 287.502,152.817 288,149.5C 288.667,148.167 289.333,148.167 290,149.5C 290.494,151.134 290.66,152.801 290.5,154.5C 291.5,154.5 292.5,154.5 293.5,154.5 Z"/></g>
<g><path style="opacity:1" fill="#659a30" d="M 113.5,157.5 C 134.167,157.5 154.833,157.5 175.5,157.5C 178.167,157.5 180.833,157.5 183.5,157.5C 161.004,158.332 138.337,158.832 115.5,159C 114.842,172.598 114.175,186.098 113.5,199.5C 113.5,185.5 113.5,171.5 113.5,157.5 Z"/></g>
<g><path style="opacity:1" fill="#55b10d" d="M 84.5,159.5 C 84.5,160.167 84.8333,160.5 85.5,160.5C 86.3127,184.824 86.646,209.158 86.5,233.5C 85.8333,233.5 85.5,233.167 85.5,232.5C 85.6192,221.482 85.2859,210.482 84.5,199.5C 84.5,191.5 84.5,183.5 84.5,175.5C 83.5,175.5 82.5,175.5 81.5,175.5C 80.8333,186.167 80.1667,186.167 79.5,175.5C 56.8309,175.667 34.1642,175.5 11.5,175C 9.63622,173.594 7.80289,173.094 6,173.5C 6.37198,179.475 6.87198,185.475 7.5,191.5C 5.89899,186.401 4.89899,181.067 4.5,175.5C 4.48153,170.077 3.81486,164.744 2.5,159.5C 4.16667,159.5 5.83333,159.5 7.5,159.5C 6.92404,163.122 7.92404,166.122 10.5,168.5C 12.5591,165.962 13.5591,162.962 13.5,159.5C 37.5916,159.563 61.2582,159.563 84.5,159.5 Z"/></g>
<g><path style="opacity:1" fill="#64a92a" d="M 191.5,156.5 C 190.192,157.232 188.858,158.066 187.5,159C 165.169,159.5 142.836,159.667 120.5,159.5C 118.856,159.286 117.356,159.62 116,160.5C 115.5,184.164 115.333,207.831 115.5,231.5C 114.833,232.167 114.167,232.833 113.5,233.5C 113.5,233.167 113.5,232.833 113.5,232.5C 113.5,221.5 113.5,210.5 113.5,199.5C 114.175,186.098 114.842,172.598 115.5,159C 138.337,158.832 161.004,158.332 183.5,157.5C 185.948,156.527 188.615,156.194 191.5,156.5 Z"/></g>
<g><path style="opacity:0.196" fill="#c5e5a6" d="M 112.5,155.5 C 112.833,155.5 113.167,155.5 113.5,155.5C 134.147,156.428 154.814,156.762 175.5,156.5C 175.5,156.833 175.5,157.167 175.5,157.5C 154.833,157.5 134.167,157.5 113.5,157.5C 112.532,159.607 112.198,161.941 112.5,164.5C 111.225,161.604 111.225,158.604 112.5,155.5 Z"/></g>
<g><path style="opacity:0.659" fill="#93bc6c" d="M 0.5,167.5 C 0.833333,167.5 1.16667,167.5 1.5,167.5C 2.0508,170.807 2.38413,174.14 2.5,177.5C 0.988643,174.456 0.321976,171.122 0.5,167.5 Z"/></g>
<g><path style="opacity:1" fill="#56b60a" d="M 120.5,159.5 C 120.5,159.833 120.5,160.167 120.5,160.5C 118.785,169.476 119.619,178.142 123,186.5C 123.927,182.987 124.761,179.487 125.5,176C 139.509,175.7 153.509,175.2 167.5,174.5C 208.158,175.459 248.824,175.793 289.5,175.5C 289.34,173.801 289.506,172.134 290,170.5C 290.537,173.093 291.37,175.593 292.5,178C 292.057,179.825 291.723,181.658 291.5,183.5C 291.435,186.428 290.768,189.095 289.5,191.5C 289.244,189.063 288.577,186.729 287.5,184.5C 234.171,183.5 180.837,183.167 127.5,183.5C 127.307,187.449 126.807,187.449 126,183.5C 125.503,186.146 125.336,188.813 125.5,191.5C 124.347,196.736 123.513,202.07 123,207.5C 122.667,207.167 122.333,206.833 122,206.5C 120.622,196.065 119.289,185.732 118,175.5C 116.957,186.143 116.457,196.809 116.5,207.5C 116.826,215.684 116.492,223.684 115.5,231.5C 115.333,207.831 115.5,184.164 116,160.5C 117.356,159.62 118.856,159.286 120.5,159.5 Z"/></g>
<g><path style="opacity:1" fill="#58b90a" d="M 84.5,199.5 C 83.5,199.5 82.5,199.5 81.5,199.5C 80.8333,208.833 80.1667,208.833 79.5,199.5C 58.5,199.5 37.5,199.5 16.5,199.5C 16.0093,196.99 15.0093,194.656 13.5,192.5C 13.1667,193 12.8333,193.5 12.5,194C 14.8297,198.157 15.8297,202.657 15.5,207.5C 13.1132,202.138 10.7799,196.805 8.5,191.5C 8.16667,191.5 7.83333,191.5 7.5,191.5C 6.87198,185.475 6.37198,179.475 6,173.5C 7.80289,173.094 9.63622,173.594 11.5,175C 34.1642,175.5 56.8309,175.667 79.5,175.5C 80.1667,186.167 80.8333,186.167 81.5,175.5C 82.5,175.5 83.5,175.5 84.5,175.5C 84.5,183.5 84.5,191.5 84.5,199.5 Z"/></g>
<g><path style="opacity:1" fill="#58ba0b" d="M 289.5,191.5 C 289.5,192.167 289.5,192.833 289.5,193.5C 287.551,194.725 286.218,194.058 285.5,191.5C 285.167,191.667 284.833,191.833 284.5,192C 282.907,194.936 281.907,198.102 281.5,201.5C 280.711,201.217 280.044,200.717 279.5,200C 229.168,199.5 178.834,199.333 128.5,199.5C 128.5,196.833 128.5,194.167 128.5,191.5C 127.5,191.5 126.5,191.5 125.5,191.5C 125.336,188.813 125.503,186.146 126,183.5C 126.807,187.449 127.307,187.449 127.5,183.5C 180.837,183.167 234.171,183.5 287.5,184.5C 288.577,186.729 289.244,189.063 289.5,191.5 Z"/></g>
<g><path style="opacity:1" fill="#71a644" d="M 1.5,167.5 C 2.74867,170.087 3.74867,172.754 4.5,175.5C 4.89899,181.067 5.89899,186.401 7.5,191.5C 7.83333,191.5 8.16667,191.5 8.5,191.5C 9.5157,196.852 10.5157,202.185 11.5,207.5C 6.96754,198.054 3.96754,188.054 2.5,177.5C 2.38413,174.14 2.0508,170.807 1.5,167.5 Z"/></g>
<g><path style="opacity:1" fill="#60b917" d="M 289.5,193.5 C 289.5,194.167 289.5,194.833 289.5,195.5C 288.239,199.374 287.572,203.374 287.5,207.5C 286.5,207.5 285.5,207.5 284.5,207.5C 282.793,212.853 281.127,218.186 279.5,223.5C 278.833,223.5 278.167,223.5 277.5,223.5C 277.339,219.156 278.839,215.489 282,212.5C 282.78,210.613 282.613,208.946 281.5,207.5C 282.641,205.549 282.641,203.549 281.5,201.5C 281.907,198.102 282.907,194.936 284.5,192C 284.833,191.833 285.167,191.667 285.5,191.5C 286.218,194.058 287.551,194.725 289.5,193.5 Z"/></g>
<g><path style="opacity:1" fill="#70a344" d="M 298.5,167.5 C 296.827,181.499 293.161,194.832 287.5,207.5C 287.572,203.374 288.239,199.374 289.5,195.5C 291.656,192.563 293.156,189.229 294,185.5C 294.93,180.201 295.597,174.867 296,169.5C 296.417,168.244 297.25,167.577 298.5,167.5 Z"/></g>
<g><path style="opacity:1" fill="#5dbe10" d="M 84.5,199.5 C 85.2859,210.482 85.6192,221.482 85.5,232.5C 84.5318,230.393 84.1984,228.059 84.5,225.5C 84.6658,220.821 84.4992,216.155 84,211.5C 83.7508,210.376 83.2508,209.376 82.5,208.5C 81.6858,210.766 81.1858,213.1 81,215.5C 80.5477,212.851 79.7143,210.351 78.5,208C 61.809,207.775 45.1423,207.275 28.5,206.5C 28.154,209.602 28.8207,212.435 30.5,215C 27.4478,215.549 24.7812,214.716 22.5,212.5C 21.5,212.833 20.8333,213.5 20.5,214.5C 22.9348,218.563 25.2681,222.563 27.5,226.5C 27.8333,226 28.1667,225.5 28.5,225C 25.6079,221.839 26.2746,219.672 30.5,218.5C 31.3081,218.808 31.9747,219.308 32.5,220C 31.782,221.987 30.782,223.821 29.5,225.5C 30.2427,226.182 30.9094,226.849 31.5,227.5C 30.3509,227.791 29.6842,228.624 29.5,230C 29.6667,230.833 29.8333,231.667 30,232.5C 30.6667,233.833 31.3333,233.833 32,232.5C 32.4955,234.473 32.6621,236.473 32.5,238.5C 35.9694,237.887 37.9694,239.221 38.5,242.5C 38.4208,243.93 38.7542,245.264 39.5,246.5C 41.3864,247.406 43.2197,248.406 45,249.5C 45.4935,251.134 45.6602,252.801 45.5,254.5C 46.5,254.5 47.5,254.5 48.5,254.5C 48.5,255.5 48.5,256.5 48.5,257.5C 42.1575,252.157 36.4908,246.157 31.5,239.5C 31.7852,237.712 31.4519,236.045 30.5,234.5C 28.4789,231.812 26.1456,229.479 23.5,227.5C 23.5,227.167 23.5,226.833 23.5,226.5C 22.8891,223.279 21.7224,220.279 20,217.5C 17.837,215.859 16.337,213.859 15.5,211.5C 15.5,210.167 15.5,208.833 15.5,207.5C 15.8297,202.657 14.8297,198.157 12.5,194C 12.8333,193.5 13.1667,193 13.5,192.5C 15.0093,194.656 16.0093,196.99 16.5,199.5C 37.5,199.5 58.5,199.5 79.5,199.5C 80.1667,208.833 80.8333,208.833 81.5,199.5C 82.5,199.5 83.5,199.5 84.5,199.5 Z"/></g>
<g><path style="opacity:1" fill="#aed886" d="M 113.5,157.5 C 113.5,171.5 113.5,185.5 113.5,199.5C 113.5,210.5 113.5,221.5 113.5,232.5C 113.167,232.5 112.833,232.5 112.5,232.5C 111.581,209.92 111.581,187.253 112.5,164.5C 112.198,161.941 112.532,159.607 113.5,157.5 Z"/></g>
<g><path style="opacity:1" fill="#5cc00b" d="M 281.5,207.5 C 282.613,208.946 282.78,210.613 282,212.5C 278.839,215.489 277.339,219.156 277.5,223.5C 277.167,223.5 276.833,223.5 276.5,223.5C 275.833,223.5 275.167,223.5 274.5,223.5C 275.063,220.676 275.063,218.009 274.5,215.5C 273.833,216.167 273.167,216.833 272.5,217.5C 224.65,215.511 176.65,214.845 128.5,215.5C 128.702,217.989 128.202,220.323 127,222.5C 126.722,221.584 126.222,220.918 125.5,220.5C 126.242,213.483 126.575,206.483 126.5,199.5C 127.214,202.027 127.88,204.527 128.5,207C 175.833,207.667 223.167,207.667 270.5,207C 272.984,205.017 275.317,202.85 277.5,200.5C 278.466,202.396 278.799,204.396 278.5,206.5C 274.757,206.459 274.59,207.126 278,208.5C 279.011,207.663 280.178,207.33 281.5,207.5 Z"/></g>
<g><path style="opacity:1" fill="#5abd0d" d="M 125.5,191.5 C 126.5,191.5 127.5,191.5 128.5,191.5C 128.5,194.167 128.5,196.833 128.5,199.5C 178.834,199.333 229.168,199.5 279.5,200C 280.044,200.717 280.711,201.217 281.5,201.5C 282.641,203.549 282.641,205.549 281.5,207.5C 280.178,207.33 279.011,207.663 278,208.5C 274.59,207.126 274.757,206.459 278.5,206.5C 278.799,204.396 278.466,202.396 277.5,200.5C 275.317,202.85 272.984,205.017 270.5,207C 223.167,207.667 175.833,207.667 128.5,207C 127.88,204.527 127.214,202.027 126.5,199.5C 126.575,206.483 126.242,213.483 125.5,220.5C 124.259,222.931 123.092,222.931 122,220.5C 121.759,212.308 120.759,204.308 119,196.5C 117.907,200.169 117.074,203.836 116.5,207.5C 116.457,196.809 116.957,186.143 118,175.5C 119.289,185.732 120.622,196.065 122,206.5C 122.333,206.833 122.667,207.167 123,207.5C 123.513,202.07 124.347,196.736 125.5,191.5 Z"/></g>
<g><path style="opacity:1" fill="#63b220" d="M 8.5,191.5 C 10.7799,196.805 13.1132,202.138 15.5,207.5C 15.5,208.833 15.5,210.167 15.5,211.5C 14.3332,209.959 12.9999,208.625 11.5,207.5C 10.5157,202.185 9.5157,196.852 8.5,191.5 Z"/></g>
<g><path style="opacity:1" fill="#5ec30c" d="M 84.5,225.5 C 80.686,225.651 79.0193,227.651 79.5,231.5C 63.8333,231.5 48.1667,231.5 32.5,231.5C 32.7678,229.901 32.4345,228.568 31.5,227.5C 30.9094,226.849 30.2427,226.182 29.5,225.5C 30.782,223.821 31.782,221.987 32.5,220C 31.9747,219.308 31.3081,218.808 30.5,218.5C 26.2746,219.672 25.6079,221.839 28.5,225C 28.1667,225.5 27.8333,226 27.5,226.5C 25.2681,222.563 22.9348,218.563 20.5,214.5C 20.8333,213.5 21.5,212.833 22.5,212.5C 24.7812,214.716 27.4478,215.549 30.5,215C 28.8207,212.435 28.154,209.602 28.5,206.5C 45.1423,207.275 61.809,207.775 78.5,208C 79.7143,210.351 80.5477,212.851 81,215.5C 81.1858,213.1 81.6858,210.766 82.5,208.5C 83.2508,209.376 83.7508,210.376 84,211.5C 84.4992,216.155 84.6658,220.821 84.5,225.5 Z"/></g>
<g><path style="opacity:1" fill="#5fc40d" d="M 125.5,220.5 C 126.222,220.918 126.722,221.584 127,222.5C 128.202,220.323 128.702,217.989 128.5,215.5C 176.65,214.845 224.65,215.511 272.5,217.5C 273.167,216.833 273.833,216.167 274.5,215.5C 275.063,218.009 275.063,220.676 274.5,223.5C 274.081,226.596 272.748,229.263 270.5,231.5C 269.675,232.386 268.675,232.719 267.5,232.5C 267.715,234.179 267.048,235.179 265.5,235.5C 266.053,233.061 266.053,230.727 265.5,228.5C 262.513,227.406 260.346,228.406 259,231.5C 258.501,235.152 258.335,238.818 258.5,242.5C 257.5,242.5 256.5,242.5 255.5,242.5C 255.577,238.785 255.244,235.119 254.5,231.5C 212.167,231.5 169.833,231.5 127.5,231.5C 127.657,230.127 127.49,228.793 127,227.5C 125.423,231.283 124.589,235.283 124.5,239.5C 122.833,239.5 121.167,239.5 119.5,239.5C 119.569,234.146 119.902,228.813 120.5,223.5C 119.5,223.5 118.5,223.5 117.5,223.5C 118.133,228.968 117.133,233.968 114.5,238.5C 114.674,236.139 115.007,233.806 115.5,231.5C 116.492,223.684 116.826,215.684 116.5,207.5C 117.074,203.836 117.907,200.169 119,196.5C 120.759,204.308 121.759,212.308 122,220.5C 123.092,222.931 124.259,222.931 125.5,220.5 Z"/></g>
<g><path style="opacity:1" fill="#6aa13c" d="M 287.5,207.5 C 285.341,213.151 282.674,218.484 279.5,223.5C 281.127,218.186 282.793,212.853 284.5,207.5C 285.5,207.5 286.5,207.5 287.5,207.5 Z"/></g>
<g><path style="opacity:1" fill="#6cb82c" d="M 15.5,211.5 C 16.337,213.859 17.837,215.859 20,217.5C 21.7224,220.279 22.8891,223.279 23.5,226.5C 21.0946,222.821 18.5946,219.154 16,215.5C 15.51,214.207 15.3433,212.873 15.5,211.5 Z"/></g>
<g><path style="opacity:1" fill="#6dbb2f" d="M 23.5,227.5 C 26.1456,229.479 28.4789,231.812 30.5,234.5C 31.4519,236.045 31.7852,237.712 31.5,239.5C 28.8482,235.542 26.1816,231.542 23.5,227.5 Z"/></g>
<g><path style="opacity:1" fill="#62c80f" d="M 84.5,225.5 C 84.1984,228.059 84.5318,230.393 85.5,232.5C 85.5,233.167 85.8333,233.5 86.5,233.5C 86.366,235.292 86.6993,236.958 87.5,238.5C 86.4168,238.461 85.4168,238.127 84.5,237.5C 83.6143,238.325 83.281,239.325 83.5,240.5C 69.4737,240.532 55.4737,240.366 41.5,240C 40.6266,241.045 39.6266,241.878 38.5,242.5C 37.9694,239.221 35.9694,237.887 32.5,238.5C 32.6621,236.473 32.4955,234.473 32,232.5C 31.3333,233.833 30.6667,233.833 30,232.5C 29.8333,231.667 29.6667,230.833 29.5,230C 29.6842,228.624 30.3509,227.791 31.5,227.5C 32.4345,228.568 32.7678,229.901 32.5,231.5C 48.1667,231.5 63.8333,231.5 79.5,231.5C 79.0193,227.651 80.686,225.651 84.5,225.5 Z"/></g>
<g><path style="opacity:1" fill="#62ca0e" d="M 265.5,235.5 C 265.5,237.167 265.5,238.833 265.5,240.5C 262.37,242.299 260.37,244.966 259.5,248.5C 259.5,249.167 259.167,249.5 258.5,249.5C 255.09,249.384 253.756,251.05 254.5,254.5C 252.379,254.325 250.379,254.659 248.5,255.5C 248.643,253.738 248.309,252.071 247.5,250.5C 248.167,249.833 248.833,249.167 249.5,248.5C 181.169,247.667 112.836,247.167 44.5,247C 45.1667,246 45.8333,245 46.5,244C 62.4965,243.5 78.4965,243.333 94.5,243.5C 94.5,242.5 94.5,241.5 94.5,240.5C 92.2646,240.795 90.2646,240.461 88.5,239.5C 97.2821,238.527 105.949,238.194 114.5,238.5C 117.133,233.968 118.133,228.968 117.5,223.5C 118.5,223.5 119.5,223.5 120.5,223.5C 119.902,228.813 119.569,234.146 119.5,239.5C 121.167,239.5 122.833,239.5 124.5,239.5C 124.589,235.283 125.423,231.283 127,227.5C 127.49,228.793 127.657,230.127 127.5,231.5C 169.833,231.5 212.167,231.5 254.5,231.5C 255.244,235.119 255.577,238.785 255.5,242.5C 256.5,242.5 257.5,242.5 258.5,242.5C 258.335,238.818 258.501,235.152 259,231.5C 260.346,228.406 262.513,227.406 265.5,228.5C 266.053,230.727 266.053,233.061 265.5,235.5 Z"/></g>
<g><path style="opacity:0.597" fill="#a6d67b" d="M 87.5,111.5 C 88.4889,116.975 88.8222,122.642 88.5,128.5C 88.3333,163.835 88.5,199.168 89,234.5C 96.4129,235.481 103.913,235.814 111.5,235.5C 104.018,236.492 96.3516,236.825 88.5,236.5C 87.596,235.791 87.2627,234.791 87.5,233.5C 87.5,192.833 87.5,152.167 87.5,111.5 Z"/></g>
<g><path style="opacity:1" fill="#79bf40" d="M 112.5,232.5 C 112.833,232.5 113.167,232.5 113.5,232.5C 113.5,232.833 113.5,233.167 113.5,233.5C 113.67,234.822 113.337,235.989 112.5,237C 104.323,237.823 96.3225,237.656 88.5,236.5C 96.3516,236.825 104.018,236.492 111.5,235.5C 111.557,234.391 111.89,233.391 112.5,232.5 Z"/></g>
<g><path style="opacity:1" fill="#6cbe2a" d="M 274.5,223.5 C 275.167,223.5 275.833,223.5 276.5,223.5C 276.481,225.06 276.148,226.56 275.5,228C 271.889,232.093 268.556,236.259 265.5,240.5C 265.5,238.833 265.5,237.167 265.5,235.5C 267.048,235.179 267.715,234.179 267.5,232.5C 268.675,232.719 269.675,232.386 270.5,231.5C 272.748,229.263 274.081,226.596 274.5,223.5 Z"/></g>
<g><path style="opacity:1" fill="#68be21" d="M 115.5,231.5 C 115.007,233.806 114.674,236.139 114.5,238.5C 105.949,238.194 97.2821,238.527 88.5,239.5C 87.8333,239.5 87.5,239.167 87.5,238.5C 86.6993,236.958 86.366,235.292 86.5,233.5C 86.8333,233.5 87.1667,233.5 87.5,233.5C 87.2627,234.791 87.596,235.791 88.5,236.5C 96.3225,237.656 104.323,237.823 112.5,237C 113.337,235.989 113.67,234.822 113.5,233.5C 114.167,232.833 114.833,232.167 115.5,231.5 Z"/></g>
<g><path style="opacity:1" fill="#6ea341" d="M 276.5,223.5 C 276.833,223.5 277.167,223.5 277.5,223.5C 278.167,223.5 278.833,223.5 279.5,223.5C 273.417,235.586 265.417,246.253 255.5,255.5C 255.615,253.053 256.615,251.053 258.5,249.5C 259.167,249.5 259.5,249.167 259.5,248.5C 262.471,246.557 264.471,243.891 265.5,240.5C 268.556,236.259 271.889,232.093 275.5,228C 276.148,226.56 276.481,225.06 276.5,223.5 Z"/></g>
<g><path style="opacity:1" fill="#72a645" d="M 11.5,207.5 C 12.9999,208.625 14.3332,209.959 15.5,211.5C 15.3433,212.873 15.51,214.207 16,215.5C 18.5946,219.154 21.0946,222.821 23.5,226.5C 23.5,226.833 23.5,227.167 23.5,227.5C 26.1816,231.542 28.8482,235.542 31.5,239.5C 36.4908,246.157 42.1575,252.157 48.5,257.5C 53.2679,262.39 58.2679,267.056 63.5,271.5C 45.0887,259.921 30.5887,244.587 20,225.5C 16.3523,219.872 13.5189,213.872 11.5,207.5 Z"/></g>
<g><path style="opacity:1" fill="#6dbd2d" d="M 265.5,240.5 C 264.471,243.891 262.471,246.557 259.5,248.5C 260.37,244.966 262.37,242.299 265.5,240.5 Z"/></g>
<g><path style="opacity:1" fill="#64cd0e" d="M 87.5,238.5 C 87.5,239.167 87.8333,239.5 88.5,239.5C 90.2646,240.461 92.2646,240.795 94.5,240.5C 94.5,241.5 94.5,242.5 94.5,243.5C 78.4965,243.333 62.4965,243.5 46.5,244C 45.8333,245 45.1667,246 44.5,247C 112.836,247.167 181.169,247.667 249.5,248.5C 248.833,249.167 248.167,249.833 247.5,250.5C 248.309,252.071 248.643,253.738 248.5,255.5C 245.759,257.975 243.759,260.975 242.5,264.5C 241.5,264.5 240.5,264.5 239.5,264.5C 240.968,263.221 241.635,261.554 241.5,259.5C 239.473,259.662 237.473,259.495 235.5,259C 236.833,258.667 238.167,258.333 239.5,258C 235.186,258.007 231.186,257.007 227.5,255C 188.835,254.5 150.168,254.333 111.5,254.5C 111.5,253.5 111.5,252.5 111.5,251.5C 106.167,251.5 100.833,251.5 95.5,251.5C 95.5,252.5 95.5,253.5 95.5,254.5C 84.8333,254.5 74.1667,254.5 63.5,254.5C 63.5,255.5 63.5,256.5 63.5,257.5C 61.0144,256.871 58.6811,255.871 56.5,254.5C 54.701,254.577 53.0344,255.077 51.5,256C 52.056,256.383 52.3893,256.883 52.5,257.5C 51.1667,257.5 49.8333,257.5 48.5,257.5C 48.5,256.5 48.5,255.5 48.5,254.5C 47.5,254.5 46.5,254.5 45.5,254.5C 45.6602,252.801 45.4935,251.134 45,249.5C 43.2197,248.406 41.3864,247.406 39.5,246.5C 38.7542,245.264 38.4208,243.93 38.5,242.5C 39.6266,241.878 40.6266,241.045 41.5,240C 55.4737,240.366 69.4737,240.532 83.5,240.5C 83.281,239.325 83.6143,238.325 84.5,237.5C 85.4168,238.127 86.4168,238.461 87.5,238.5 Z"/></g>
<g><path style="opacity:1" fill="#64d20e" d="M 239.5,264.5 C 235.865,265.439 233.865,267.773 233.5,271.5C 233.167,271.5 232.833,271.5 232.5,271.5C 230.099,272.049 227.765,272.882 225.5,274C 224.177,274.816 223.511,275.983 223.5,277.5C 218.394,278.815 213.394,280.649 208.5,283C 207.748,283.671 207.414,284.504 207.5,285.5C 207.389,286.117 207.056,286.617 206.5,287C 203.223,288.143 199.89,288.977 196.5,289.5C 197.625,287.871 198.959,286.371 200.5,285C 200.167,284.667 199.833,284.333 199.5,284C 206.744,283.063 213.077,280.23 218.5,275.5C 216.632,274.087 214.632,272.92 212.5,272C 206.5,271.333 200.5,271.333 194.5,272C 195.167,272.333 195.833,272.667 196.5,273C 195.333,274.167 194.167,275.333 193,276.5C 192.691,275.234 192.191,274.067 191.5,273C 191.833,272.667 192.167,272.333 192.5,272C 173.667,271.833 154.833,271.667 136,271.5C 116.684,271.512 97.5172,272.179 78.5,273.5C 75.9711,272.04 73.3044,271.54 70.5,272C 73.2316,273.1 75.2316,274.267 76.5,275.5C 75.1667,275.5 73.8333,275.5 72.5,275.5C 70.847,275.34 69.5137,274.674 68.5,273.5C 68.6107,272.883 68.944,272.383 69.5,272C 66.1071,271.606 63.9404,269.773 63,266.5C 59.4159,263.621 55.9159,260.621 52.5,257.5C 52.3893,256.883 52.056,256.383 51.5,256C 53.0344,255.077 54.701,254.577 56.5,254.5C 58.6811,255.871 61.0144,256.871 63.5,257.5C 63.5,256.5 63.5,255.5 63.5,254.5C 74.1667,254.5 84.8333,254.5 95.5,254.5C 95.5,253.5 95.5,252.5 95.5,251.5C 100.833,251.5 106.167,251.5 111.5,251.5C 111.5,252.5 111.5,253.5 111.5,254.5C 150.168,254.333 188.835,254.5 227.5,255C 231.186,257.007 235.186,258.007 239.5,258C 238.167,258.333 236.833,258.667 235.5,259C 237.473,259.495 239.473,259.662 241.5,259.5C 241.635,261.554 240.968,263.221 239.5,264.5 Z"/></g>
<g><path style="opacity:1" fill="#6cc327" d="M 258.5,249.5 C 256.615,251.053 255.615,253.053 255.5,255.5C 254.07,255.421 252.736,255.754 251.5,256.5C 248.543,259.436 245.543,262.103 242.5,264.5C 243.759,260.975 245.759,257.975 248.5,255.5C 250.379,254.659 252.379,254.325 254.5,254.5C 253.756,251.05 255.09,249.384 258.5,249.5 Z"/></g>
<g><path style="opacity:1" fill="#6da23d" d="M 255.5,255.5 C 246.253,265.417 235.586,273.417 223.5,279.5C 223.5,278.833 223.5,278.167 223.5,277.5C 227.054,276.231 230.054,274.231 232.5,271.5C 232.833,271.5 233.167,271.5 233.5,271.5C 237.121,269.869 240.121,267.535 242.5,264.5C 245.543,262.103 248.543,259.436 251.5,256.5C 252.736,255.754 254.07,255.421 255.5,255.5 Z"/></g>
<g><path style="opacity:1" fill="#75c730" d="M 239.5,264.5 C 240.5,264.5 241.5,264.5 242.5,264.5C 240.121,267.535 237.121,269.869 233.5,271.5C 233.865,267.773 235.865,265.439 239.5,264.5 Z"/></g>
<g><path style="opacity:1" fill="#6ec828" d="M 48.5,257.5 C 49.8333,257.5 51.1667,257.5 52.5,257.5C 55.9159,260.621 59.4159,263.621 63,266.5C 63.9404,269.773 66.1071,271.606 69.5,272C 68.944,272.383 68.6107,272.883 68.5,273.5C 66.9505,272.559 65.2838,271.893 63.5,271.5C 58.2679,267.056 53.2679,262.39 48.5,257.5 Z"/></g>
<g><path style="opacity:1" fill="#68d70f" d="M 196.5,289.5 C 195.167,289.5 193.833,289.5 192.5,289.5C 193.968,288.221 194.635,286.554 194.5,284.5C 188.881,285.914 183.214,287.247 177.5,288.5C 175.855,288.059 174.189,287.726 172.5,287.5C 169.437,288.612 166.271,289.279 163,289.5C 148.366,286.748 133.866,286.915 119.5,290C 120.71,291.039 121.71,292.206 122.5,293.5C 116.946,292.039 111.279,291.039 105.5,290.5C 102.761,287.976 99.4276,286.976 95.5,287.5C 92.5672,285.355 89.5672,283.188 86.5,281C 83.2916,280.597 80.2916,279.597 77.5,278C 76.7476,277.329 76.4142,276.496 76.5,275.5C 75.2316,274.267 73.2316,273.1 70.5,272C 73.3044,271.54 75.9711,272.04 78.5,273.5C 97.5172,272.179 116.684,271.512 136,271.5C 154.833,271.667 173.667,271.833 192.5,272C 192.167,272.333 191.833,272.667 191.5,273C 192.191,274.067 192.691,275.234 193,276.5C 194.167,275.333 195.333,274.167 196.5,273C 195.833,272.667 195.167,272.333 194.5,272C 200.5,271.333 206.5,271.333 212.5,272C 214.632,272.92 216.632,274.087 218.5,275.5C 213.077,280.23 206.744,283.063 199.5,284C 199.833,284.333 200.167,284.667 200.5,285C 198.959,286.371 197.625,287.871 196.5,289.5 Z"/></g>
<g><path style="opacity:1" fill="#77ca30" d="M 232.5,271.5 C 230.054,274.231 227.054,276.231 223.5,277.5C 223.511,275.983 224.177,274.816 225.5,274C 227.765,272.882 230.099,272.049 232.5,271.5 Z"/></g>
<g><path style="opacity:1" fill="#74c933" d="M 72.5,275.5 C 73.8333,275.5 75.1667,275.5 76.5,275.5C 76.4142,276.496 76.7476,277.329 77.5,278C 80.2916,279.597 83.2916,280.597 86.5,281C 89.5672,283.188 92.5672,285.355 95.5,287.5C 87.0804,284.792 79.4138,280.792 72.5,275.5 Z"/></g>
<g><path style="opacity:1" fill="#77c92b" d="M 223.5,277.5 C 223.5,278.167 223.5,278.833 223.5,279.5C 217.929,280.956 212.596,282.956 207.5,285.5C 207.414,284.504 207.748,283.671 208.5,283C 213.394,280.649 218.394,278.815 223.5,277.5 Z"/></g>
<g><path style="opacity:1" fill="#69db0f" d="M 192.5,289.5 C 185.785,290.934 179.118,292.268 172.5,293.5C 168.174,294.163 163.841,294.829 159.5,295.5C 152.382,294.446 145.382,294.446 138.5,295.5C 133.959,294.016 129.292,293.349 124.5,293.5C 123.833,293.5 123.167,293.5 122.5,293.5C 121.71,292.206 120.71,291.039 119.5,290C 133.866,286.915 148.366,286.748 163,289.5C 166.271,289.279 169.437,288.612 172.5,287.5C 174.189,287.726 175.855,288.059 177.5,288.5C 183.214,287.247 188.881,285.914 194.5,284.5C 194.635,286.554 193.968,288.221 192.5,289.5 Z"/></g>
<g><path style="opacity:1" fill="#7bce31" d="M 95.5,287.5 C 99.4276,286.976 102.761,287.976 105.5,290.5C 101.916,290.025 98.5828,289.025 95.5,287.5 Z"/></g>
<g><path style="opacity:1" fill="#6ba23c" d="M 223.5,279.5 C 207.19,289.163 189.523,295.496 170.5,298.5C 170.833,297.833 171.167,297.167 171.5,296.5C 180.118,294.732 188.451,292.399 196.5,289.5C 199.89,288.977 203.223,288.143 206.5,287C 207.056,286.617 207.389,286.117 207.5,285.5C 212.596,282.956 217.929,280.956 223.5,279.5 Z"/></g>
<g><path style="opacity:1" fill="#70a642" d="M 63.5,271.5 C 65.2838,271.893 66.9505,272.559 68.5,273.5C 69.5137,274.674 70.847,275.34 72.5,275.5C 79.4138,280.792 87.0804,284.792 95.5,287.5C 98.5828,289.025 101.916,290.025 105.5,290.5C 112.462,293.41 119.795,295.41 127.5,296.5C 127.5,297.167 127.5,297.833 127.5,298.5C 107.597,294.923 88.9305,288.089 71.5,278C 68.5798,276.054 65.9131,273.887 63.5,271.5 Z"/></g>
<g><path style="opacity:1" fill="#73cd2a" d="M 192.5,289.5 C 193.833,289.5 195.167,289.5 196.5,289.5C 188.451,292.399 180.118,294.732 171.5,296.5C 168.193,297.051 164.86,297.384 161.5,297.5C 165.167,296.167 168.833,294.833 172.5,293.5C 179.118,292.268 185.785,290.934 192.5,289.5 Z"/></g>
<g><path style="opacity:1" fill="#77cc2d" d="M 105.5,290.5 C 111.279,291.039 116.946,292.039 122.5,293.5C 123.167,293.5 123.833,293.5 124.5,293.5C 130.804,294.993 137.137,296.326 143.5,297.5C 141.5,297.5 139.5,297.5 137.5,297.5C 134.193,296.949 130.86,296.616 127.5,296.5C 119.795,295.41 112.462,293.41 105.5,290.5 Z"/></g>
<g><path style="opacity:1" fill="#6fd51e" d="M 124.5,293.5 C 129.292,293.349 133.959,294.016 138.5,295.5C 145.382,294.446 152.382,294.446 159.5,295.5C 163.841,294.829 168.174,294.163 172.5,293.5C 168.833,294.833 165.167,296.167 161.5,297.5C 160.833,297.5 160.167,297.5 159.5,297.5C 154.167,297.5 148.833,297.5 143.5,297.5C 137.137,296.326 130.804,294.993 124.5,293.5 Z"/></g>
<g><path style="opacity:1" fill="#6fb23a" d="M 127.5,296.5 C 130.86,296.616 134.193,296.949 137.5,297.5C 135.5,298.167 133.5,298.833 131.5,299.5C 130.167,299.5 128.833,299.5 127.5,299.5C 127.5,299.167 127.5,298.833 127.5,298.5C 127.5,297.833 127.5,297.167 127.5,296.5 Z"/></g>
<g><path style="opacity:1" fill="#75b741" d="M 171.5,296.5 C 171.167,297.167 170.833,297.833 170.5,298.5C 170.5,298.833 170.5,299.167 170.5,299.5C 166.833,299.5 163.167,299.5 159.5,299.5C 159.5,298.833 159.5,298.167 159.5,297.5C 160.167,297.5 160.833,297.5 161.5,297.5C 164.86,297.384 168.193,297.051 171.5,296.5 Z"/></g>
<g><path style="opacity:1" fill="#5bb516" d="M 137.5,297.5 C 139.5,297.5 141.5,297.5 143.5,297.5C 148.833,297.5 154.167,297.5 159.5,297.5C 159.5,298.167 159.5,298.833 159.5,299.5C 150.167,299.5 140.833,299.5 131.5,299.5C 133.5,298.833 135.5,298.167 137.5,297.5 Z"/></g>
</svg>
